<svg width="735" height="423" viewBox="0 0 735 423" fill="none" xmlns="http://www.w3.org/2000/svg">
<path d="M297.911 416.22C298.03 415.822 298.03 415.178 297.911 414.78L295.973 408.299C295.854 407.9 295.661 407.9 295.543 408.299C295.424 408.696 295.424 409.341 295.543 409.739L297.265 415.5L295.543 421.262C295.424 421.659 295.424 422.304 295.543 422.702C295.661 423.099 295.854 423.099 295.973 422.702L297.911 416.22ZM76 416.519H297.695V414.482H76V416.519Z" fill="#919191"/>
<path d="M295.911 72.2205C296.03 71.8222 296.03 71.1775 295.911 70.7803L293.973 64.2987C293.854 63.9004 293.661 63.9004 293.543 64.2987C293.424 64.6959 293.424 65.3406 293.543 65.7388L295.265 71.5004L293.543 77.262C293.424 77.6592 293.424 78.3039 293.543 78.7021C293.661 79.0993 293.854 79.0993 293.973 78.7021L295.911 72.2205ZM74 72.5189H295.695V70.4819H74V72.5189Z" fill="#919191"/>
<path d="M75.2202 0.143068C74.8224 -0.0476892 74.1776 -0.0476892 73.7798 0.143068L67.2984 3.25168C66.9005 3.44244 66.9005 3.75172 67.2984 3.94248C67.6961 4.13324 68.341 4.13324 68.7387 3.94248L74.5 1.17927L80.2614 3.94248C80.6591 4.13324 81.304 4.13324 81.7017 3.94248C82.0994 3.75172 82.0994 3.44244 81.7017 3.25168L75.2202 0.143068ZM75.5185 71V0.488469H73.4815V71H75.5185Z" fill="#909090"/>
<path d="M157 48H128V69H157V48Z" fill="#E5CC44"/>
<path d="M195 48H168V69H195V48Z" fill="#E5CC44"/>
<path d="M154.565 37H130.435C129.09 37 128 40.5817 128 45V50.3854C128 54.8037 129.09 58.3854 130.435 58.3854H154.565C155.91 58.3854 157 54.8037 157 50.3854V45C157 40.5817 155.91 37 154.565 37Z" fill="#F8F8F8"/>
<path d="M189.71 37H173.29C170.368 37 168 40.5817 168 45V50.3854C168 54.8037 170.368 58.3854 173.29 58.3854H189.71C192.632 58.3854 195 54.8037 195 50.3854V45C195 40.5817 192.632 37 189.71 37Z" fill="#F8F8F8"/>
<path d="M77 22.7882C77 20.696 79.4402 19 82.4504 19H122.55C125.56 19 128 20.696 128 22.7882V69H82.4504C79.4402 69 77 67.3038 77 65.2118V22.7882Z" fill="#E5CC44"/>
<path d="M157 22.7882C157 20.696 157.598 19 158.336 19H168.164C168.902 19 169.5 20.696 169.5 22.7882V69H157V22.7882Z" fill="#E5CC44"/>
<path d="M195 22.7882C195 20.696 201.858 19 210.316 19H255.684C264.142 19 271 20.696 271 22.7882V69H195V22.7882Z" fill="#E5CC44"/>
<path d="M309.688 77.188V76.204L310.961 75.985V66.977H308.383L308.157 68.555H307V65.813H316.454V68.555H315.313L315.079 66.977H312.5V75.985L313.774 76.204V77.188H309.688ZM317.133 77.188V76.204L318.407 75.985V69.946L317.133 69.727V68.735H319.946V75.985L321.219 76.204V77.188H317.133ZM318.329 66.649V65H319.946V66.649H318.329ZM322.282 77.188V76.204L323.555 75.985V69.946L322.282 69.727V68.735H324.938L325.04 69.836C325.31 69.435 325.659 69.125 326.086 68.907C326.513 68.688 327.008 68.579 327.571 68.579C328.133 68.579 328.615 68.709 329.016 68.969C329.422 69.23 329.727 69.62 329.93 70.141C330.196 69.662 330.547 69.282 330.985 69C331.422 68.719 331.933 68.579 332.516 68.579C333.381 68.579 334.063 68.875 334.563 69.469C335.063 70.058 335.313 70.946 335.313 72.133V75.985L336.586 76.204V77.188H332.493V76.204L333.766 75.985V72.118C333.766 71.284 333.623 70.696 333.336 70.352C333.05 70.003 332.625 69.829 332.063 69.829C331.527 69.829 331.094 70.019 330.766 70.399C330.443 70.774 330.256 71.248 330.204 71.821V75.985L331.477 76.204V77.188H327.391V76.204L328.665 75.985V72.118C328.665 71.326 328.516 70.748 328.219 70.383C327.928 70.014 327.503 69.829 326.946 69.829C326.477 69.829 326.092 69.925 325.79 70.118C325.487 70.31 325.256 70.581 325.094 70.93V75.985L326.368 76.204V77.188H322.282ZM341.461 77.352C340.68 77.352 340 77.175 339.422 76.821C338.844 76.461 338.396 75.964 338.079 75.329C337.766 74.693 337.61 73.959 337.61 73.125V72.782C337.61 71.98 337.774 71.264 338.102 70.633C338.435 69.998 338.875 69.498 339.422 69.133C339.974 68.764 340.576 68.579 341.227 68.579C342.362 68.579 343.222 68.922 343.805 69.61C344.394 70.297 344.688 71.214 344.688 72.36V73.321H339.204L339.18 73.36C339.196 74.172 339.402 74.842 339.797 75.368C340.193 75.889 340.748 76.149 341.461 76.149C341.982 76.149 342.438 76.076 342.829 75.93C343.224 75.779 343.566 75.573 343.852 75.313L344.454 76.313C344.152 76.605 343.75 76.852 343.25 77.055C342.756 77.253 342.159 77.352 341.461 77.352ZM339.25 72.118H343.149V71.915C343.149 71.31 342.987 70.805 342.665 70.399C342.342 69.993 341.862 69.79 341.227 69.79C340.711 69.79 340.271 70.008 339.907 70.446C339.542 70.878 339.318 71.422 339.235 72.079L339.25 72.118Z" fill="black"/>
<path d="M0 12.1875V11.2031L1.27344 10.9844V2.0234L0 1.8047V0.8125H5.2266C6.4401 0.8125 7.3828 1.125 8.0547 1.75C8.7318 2.375 9.0703 3.1979 9.0703 4.2187C9.0703 5.25 8.7318 6.0755 8.0547 6.6953C7.3828 7.3151 6.4401 7.625 5.2266 7.625H2.8125V10.9844L4.08594 11.2031V12.1875H0ZM2.8125 6.4219H5.2266C5.9974 6.4219 6.5729 6.2161 6.9531 5.8047C7.3385 5.388 7.5312 4.8646 7.5312 4.2344C7.5312 3.6042 7.3385 3.0781 6.9531 2.6563C6.5729 2.2344 5.9974 2.0234 5.2266 2.0234H2.8125V6.4219ZM10.0703 12.1875V11.2031L11.3438 10.9844V4.9453L10.0703 4.7266V3.7344H12.7188L12.8516 4.8125L12.8672 4.9609C13.1068 4.5286 13.401 4.1901 13.75 3.9453C14.1042 3.7005 14.5078 3.5781 14.9609 3.5781C15.1224 3.5781 15.2865 3.5937 15.4531 3.625C15.625 3.651 15.7474 3.6771 15.8203 3.7031L15.6172 5.1328L14.5469 5.0703C14.1406 5.0443 13.7995 5.138 13.5234 5.3516C13.2474 5.5599 13.0339 5.8411 12.8828 6.1953V10.9844L14.1562 11.2031V12.1875H10.0703ZM20.4531 12.3516C19.6719 12.3516 18.9922 12.1745 18.4141 11.8203C17.8359 11.4609 17.388 10.9635 17.0703 10.3281C16.7578 9.6927 16.6016 8.9583 16.6016 8.125V7.7813C16.6016 6.9792 16.7656 6.263 17.0938 5.6328C17.4271 4.9974 17.8672 4.4974 18.4141 4.1328C18.9661 3.763 19.5677 3.5781 20.2188 3.5781C21.3542 3.5781 22.2135 3.9219 22.7969 4.6094C23.3854 5.2969 23.6797 6.2135 23.6797 7.3594V8.3203H18.1953L18.1719 8.3594C18.1875 9.1719 18.3932 9.8411 18.7891 10.3672C19.1849 10.888 19.7396 11.1484 20.4531 11.1484C20.974 11.1484 21.4297 11.0755 21.8203 10.9297C22.2161 10.7786 22.5573 10.5729 22.8438 10.3125L23.4453 11.3125C23.1432 11.6042 22.7422 11.8516 22.2422 12.0547C21.7474 12.2526 21.151 12.3516 20.4531 12.3516ZM18.2422 7.1172H22.1406V6.9141C22.1406 6.3099 21.9792 5.8047 21.6562 5.3984C21.3333 4.9922 20.8542 4.7891 20.2188 4.7891C19.7031 4.7891 19.263 5.0078 18.8984 5.4453C18.5339 5.8776 18.3099 6.4219 18.2266 7.0781L18.2422 7.1172ZM28.3516 12.3516C27.7839 12.3516 27.2526 12.2943 26.7578 12.1797C26.263 12.0651 25.737 11.888 25.1797 11.6484L25.1641 9.6406H26.3281L26.6172 10.8516C27.1693 11.0807 27.7474 11.1953 28.3516 11.1953C28.9766 11.1953 29.4245 11.0755 29.6953 10.8359C29.9661 10.5964 30.1016 10.2995 30.1016 9.9453C30.1016 9.612 29.9635 9.3307 29.6875 9.1016C29.4167 8.8672 28.9219 8.6693 28.2031 8.5078C27.1823 8.2734 26.4297 7.9609 25.9453 7.5703C25.4661 7.1745 25.2266 6.6484 25.2266 5.9922C25.2266 5.5339 25.3594 5.125 25.625 4.7656C25.8906 4.401 26.2604 4.112 26.7344 3.8984C27.2083 3.6849 27.7604 3.5781 28.3906 3.5781C29.0312 3.5781 29.5781 3.651 30.0312 3.7969C30.4896 3.9427 30.888 4.138 31.2266 4.3828L31.3047 6.3125H30.1484L29.8984 5.1875C29.7161 5.0521 29.5 4.9479 29.25 4.875C29 4.8021 28.7135 4.7656 28.3906 4.7656C27.9115 4.7656 27.5208 4.8776 27.2188 5.1016C26.9219 5.3255 26.7734 5.6068 26.7734 5.9453C26.7734 6.1432 26.8151 6.3151 26.8984 6.4609C26.987 6.6068 27.1536 6.7396 27.3984 6.8594C27.6432 6.974 28.0026 7.0885 28.4766 7.2031C29.6536 7.4792 30.474 7.8307 30.9375 8.2578C31.4062 8.6849 31.6406 9.2109 31.6406 9.8359C31.6406 10.5495 31.375 11.1484 30.8438 11.6328C30.3177 12.112 29.487 12.3516 28.3516 12.3516ZM36.3359 12.3516C35.7682 12.3516 35.237 12.2943 34.7422 12.1797C34.2474 12.0651 33.7214 11.888 33.1641 11.6484L33.1484 9.6406H34.3125L34.6016 10.8516C35.1536 11.0807 35.7318 11.1953 36.3359 11.1953C36.9609 11.1953 37.4089 11.0755 37.6797 10.8359C37.9505 10.5964 38.0859 10.2995 38.0859 9.9453C38.0859 9.612 37.9479 9.3307 37.6719 9.1016C37.401 8.8672 36.9062 8.6693 36.1875 8.5078C35.1667 8.2734 34.4141 7.9609 33.9297 7.5703C33.4505 7.1745 33.2109 6.6484 33.2109 5.9922C33.2109 5.5339 33.3438 5.125 33.6094 4.7656C33.875 4.401 34.2448 4.112 34.7188 3.8984C35.1927 3.6849 35.7448 3.5781 36.375 3.5781C37.0156 3.5781 37.5625 3.651 38.0156 3.7969C38.474 3.9427 38.8724 4.138 39.2109 4.3828L39.2891 6.3125H38.1328L37.8828 5.1875C37.7005 5.0521 37.4844 4.9479 37.2344 4.875C36.9844 4.8021 36.6979 4.7656 36.375 4.7656C35.8958 4.7656 35.5052 4.8776 35.2031 5.1016C34.9062 5.3255 34.7578 5.6068 34.7578 5.9453C34.7578 6.1432 34.7995 6.3151 34.8828 6.4609C34.9714 6.6068 35.138 6.7396 35.3828 6.8594C35.6276 6.974 35.987 7.0885 36.4609 7.2031C37.638 7.4792 38.4583 7.8307 38.9219 8.2578C39.3906 8.6849 39.625 9.2109 39.625 9.8359C39.625 10.5495 39.3594 11.1484 38.8281 11.6328C38.3021 12.112 37.4714 12.3516 36.3359 12.3516ZM40.8438 12.1875V11.2031L42.1172 10.9844V4.9453L40.8438 4.7266V3.7344H43.6562V10.9844L44.9297 11.2031V12.1875H40.8438ZM42.0391 1.6484V0H43.6562V1.6484H42.0391ZM45.9922 12.1875V11.2031L47.2656 10.9844V4.9453L45.9922 4.7266V3.7344H48.6406L48.75 4.9922C49.0312 4.5443 49.3828 4.1979 49.8047 3.9531C50.2318 3.7031 50.7161 3.5781 51.2578 3.5781C52.1693 3.5781 52.875 3.8464 53.375 4.3828C53.875 4.9141 54.125 5.737 54.125 6.8516V10.9844L55.3984 11.2031V12.1875H51.3125V11.2031L52.5859 10.9844V6.8828C52.5859 6.138 52.4375 5.6094 52.1406 5.2969C51.849 4.9844 51.401 4.8281 50.7969 4.8281C50.3542 4.8281 49.9609 4.9349 49.6172 5.1484C49.2786 5.362 49.0078 5.6536 48.8047 6.0234V10.9844L50.0781 11.2031V12.1875H45.9922ZM60.125 15.6016C59.7188 15.6016 59.2786 15.5443 58.8047 15.4297C58.3307 15.3203 57.9141 15.1693 57.5547 14.9766L57.9531 13.7813C58.2396 13.9323 58.5781 14.0573 58.9688 14.1563C59.3594 14.2552 59.7396 14.3047 60.1094 14.3047C60.7969 14.3047 61.2995 14.112 61.6172 13.7266C61.9401 13.3411 62.1016 12.7917 62.1016 12.0781V11.2734C61.5391 11.9922 60.7656 12.3516 59.7812 12.3516C59.0938 12.3516 58.5 12.1823 58 11.8437C57.5 11.5 57.1146 11.0234 56.8438 10.4141C56.5781 9.7995 56.4453 9.0885 56.4453 8.2813V8.1172C56.4453 7.2109 56.5781 6.4167 56.8438 5.7344C57.1146 5.0521 57.5 4.5234 58 4.1484C58.5 3.7682 59.099 3.5781 59.7969 3.5781C60.8438 3.5781 61.6458 3.9844 62.2031 4.7969L62.3438 3.7344H64.6875V4.7187L63.6406 4.9453V12.0781C63.6406 13.1719 63.3359 14.0313 62.7266 14.6563C62.1172 15.2865 61.25 15.6016 60.125 15.6016ZM60.1641 11.1016C60.6276 11.1016 61.0156 10.9974 61.3281 10.7891C61.6406 10.5755 61.8984 10.276 62.1016 9.8906V6C61.9036 5.6406 61.6458 5.3568 61.3281 5.1484C61.0104 4.9349 60.6276 4.8281 60.1797 4.8281C59.4453 4.8281 58.8958 5.1354 58.5312 5.75C58.1667 6.3646 57.9844 7.1536 57.9844 8.1172V8.2813C57.9844 9.1302 58.1641 9.8125 58.5234 10.3281C58.8828 10.8437 59.4297 11.1016 60.1641 11.1016Z" fill="black"/>
<path d="M98.1367 64H97.2285V57.9795L95.4072 58.6484V57.8281L97.9951 56.8564H98.1367V64ZM105.241 60.9678C105.241 62.0257 105.061 62.8118 104.699 63.3262C104.338 63.8405 103.773 64.0977 103.005 64.0977C102.246 64.0977 101.685 63.847 101.32 63.3457C100.956 62.8411 100.767 62.0892 100.754 61.0898V59.8838C100.754 58.8389 100.935 58.0625 101.296 57.5547C101.657 57.0469 102.224 56.793 102.995 56.793C103.76 56.793 104.323 57.0387 104.685 57.5303C105.046 58.0186 105.231 58.7738 105.241 59.7959V60.9678ZM104.338 59.7324C104.338 58.9674 104.23 58.4108 104.016 58.0625C103.801 57.7109 103.461 57.5352 102.995 57.5352C102.533 57.5352 102.196 57.7093 101.984 58.0576C101.773 58.4059 101.664 58.9414 101.657 59.6641V61.1094C101.657 61.8776 101.768 62.4456 101.989 62.8135C102.214 63.1781 102.552 63.3604 103.005 63.3604C103.451 63.3604 103.781 63.1878 103.996 62.8428C104.214 62.4977 104.328 61.9541 104.338 61.2119V59.7324ZM107.712 60.0059H108.391C108.817 59.9993 109.152 59.887 109.396 59.6689C109.641 59.4508 109.763 59.1562 109.763 58.7852C109.763 57.9518 109.348 57.5352 108.518 57.5352C108.127 57.5352 107.814 57.6475 107.58 57.8721C107.349 58.0934 107.233 58.388 107.233 58.7559H106.33C106.33 58.1927 106.535 57.7256 106.945 57.3545C107.359 56.9801 107.883 56.793 108.518 56.793C109.188 56.793 109.714 56.9704 110.095 57.3252C110.476 57.68 110.666 58.1732 110.666 58.8047C110.666 59.1139 110.565 59.4134 110.363 59.7031C110.165 59.9928 109.893 60.2093 109.548 60.3525C109.938 60.4762 110.24 60.6813 110.451 60.9678C110.666 61.2542 110.773 61.6042 110.773 62.0176C110.773 62.6556 110.565 63.1618 110.148 63.5361C109.732 63.9105 109.19 64.0977 108.522 64.0977C107.855 64.0977 107.312 63.917 106.892 63.5557C106.475 63.1943 106.267 62.7174 106.267 62.125H107.175C107.175 62.4993 107.297 62.7988 107.541 63.0234C107.785 63.248 108.112 63.3604 108.522 63.3604C108.959 63.3604 109.292 63.2464 109.523 63.0186C109.755 62.7907 109.87 62.4635 109.87 62.0371C109.87 61.6237 109.743 61.3063 109.489 61.085C109.235 60.8636 108.869 60.7497 108.391 60.7432H107.712V60.0059Z" fill="black"/>
<path d="M473.061 212.061C473.646 211.475 473.646 210.525 473.061 209.939L463.515 200.393C462.929 199.808 461.979 199.808 461.393 200.393C460.808 200.979 460.808 201.929 461.393 202.515L469.879 211L461.393 219.485C460.808 220.071 460.808 221.021 461.393 221.607C461.979 222.192 462.929 222.192 463.515 221.607L473.061 212.061ZM348 212.5L472 212.5L472 209.5L348 209.5L348 212.5Z" fill="black"/>
<path d="M76.2202 172.143C75.8224 171.952 75.1776 171.952 74.7798 172.143L68.2984 175.252C67.9005 175.442 67.9005 175.752 68.2984 175.942C68.6961 176.133 69.341 176.133 69.7387 175.942L75.5 173.179L81.2614 175.942C81.6591 176.133 82.304 176.133 82.7017 175.942C83.0994 175.752 83.0994 175.442 82.7017 175.252L76.2202 172.143ZM76.5185 243V172.488H74.4815V243H76.5185Z" fill="#909090"/>
<path d="M76.2202 258.143C75.8224 257.952 75.1776 257.952 74.7798 258.143L68.2984 261.252C67.9005 261.442 67.9005 261.752 68.2984 261.942C68.6961 262.133 69.341 262.133 69.7387 261.942L75.5 259.179L81.2614 261.942C81.6591 262.133 82.304 262.133 82.7017 261.942C83.0994 261.752 83.0994 261.442 82.7017 261.252L76.2202 258.143ZM76.5185 329V258.488H74.4815V329H76.5185Z" fill="#909090"/>
<path d="M76.2202 345.143C75.8224 344.952 75.1776 344.952 74.7798 345.143L68.2984 348.252C67.9005 348.442 67.9005 348.752 68.2984 348.942C68.6961 349.133 69.341 349.133 69.7387 348.942L75.5 346.179L81.2614 348.942C81.6591 349.133 82.304 349.133 82.7017 348.942C83.0994 348.752 83.0994 348.442 82.7017 348.252L76.2202 345.143ZM76.5185 416V345.488H74.4815V416H76.5185Z" fill="#909090"/>
<path d="M76.2202 85.1431C75.8224 84.9523 75.1776 84.9523 74.7798 85.1431L68.2984 88.2517C67.9005 88.4424 67.9005 88.7517 68.2984 88.9425C68.6961 89.1332 69.341 89.1332 69.7387 88.9425L75.5 86.1793L81.2614 88.9425C81.6591 89.1332 82.304 89.1332 82.7017 88.9425C83.0994 88.7517 83.0994 88.4424 82.7017 88.2517L76.2202 85.1431ZM76.5185 156V85.4885H74.4815V156H76.5185Z" fill="#909090"/>
<path d="M153 392H128V413H153V392Z" fill="#E5CC44"/>
<path d="M197 392H167V413H197V392Z" fill="#E5CC44"/>
<path d="M150.901 381H130.099C128.94 381 128 384.582 128 389V394.385C128 398.804 128.94 402.385 130.099 402.385H150.901C152.06 402.385 153 398.804 153 394.385V389C153 384.582 152.06 381 150.901 381Z" fill="#F8F8F8"/>
<path d="M191.122 381H172.878C169.632 381 167 384.582 167 389V394.385C167 398.804 169.632 402.385 172.878 402.385H191.122C194.368 402.385 197 398.804 197 394.385V389C197 384.582 194.368 381 191.122 381Z" fill="#F8F8F8"/>
<path d="M79 366.788C79 364.696 81.3445 363 84.2367 363H122.763C125.655 363 128 364.696 128 366.788V413H84.2367C81.3445 413 79 411.304 79 409.212V366.788Z" fill="#E5CC44"/>
<path d="M153 366.788C153 364.696 153.67 363 154.496 363H165.504C166.33 363 167 364.696 167 366.788V413H153V366.788Z" fill="#E5CC44"/>
<path d="M197 366.788C197 364.696 203.046 363 210.502 363H250.498C257.954 363 264 364.696 264 366.788V413H197V366.788Z" fill="#E5CC44"/>
<path d="M297.911 329.22C298.03 328.822 298.03 328.178 297.911 327.78L295.973 321.299C295.854 320.9 295.661 320.9 295.543 321.299C295.424 321.696 295.424 322.341 295.543 322.739L297.265 328.5L295.543 334.262C295.424 334.659 295.424 335.304 295.543 335.702C295.661 336.099 295.854 336.099 295.973 335.702L297.911 329.22ZM76 329.519H297.695V327.482H76V329.519Z" fill="#919191"/>
<path d="M513.22 175.143C512.822 174.952 512.178 174.952 511.78 175.143L505.298 178.252C504.901 178.442 504.901 178.752 505.298 178.942C505.696 179.133 506.341 179.133 506.739 178.942L512.5 176.179L518.261 178.942C518.659 179.133 519.304 179.133 519.702 178.942C520.099 178.752 520.099 178.442 519.702 178.252L513.22 175.143ZM513.518 246V175.488H511.482V246H513.518Z" fill="#909090"/>
<path d="M734.911 246.22C735.03 245.822 735.03 245.178 734.911 244.78L732.973 238.299C732.854 237.9 732.661 237.9 732.543 238.299C732.424 238.696 732.424 239.341 732.543 239.739L734.265 245.5L732.543 251.262C732.424 251.659 732.424 252.304 732.543 252.702C732.661 253.099 732.854 253.099 732.973 252.702L734.911 246.22ZM513 246.519H734.695V244.482H513V246.519Z" fill="#919191"/>
<path d="M592 222H567V243H592V222Z" fill="#E5CC44"/>
<path d="M634 222H604V243H634V222Z" fill="#E5CC44"/>
<path d="M589.901 211H569.099C567.94 211 567 214.582 567 219V224.385C567 228.804 567.94 232.385 569.099 232.385H589.901C591.06 232.385 592 228.804 592 224.385V219C592 214.582 591.06 211 589.901 211Z" fill="#F8F8F8"/>
<path d="M628.122 211H609.878C606.632 211 604 214.582 604 219V224.385C604 228.804 606.632 232.385 609.878 232.385H628.122C631.368 232.385 634 228.804 634 224.385V219C634 214.582 631.368 211 628.122 211Z" fill="#F8F8F8"/>
<path d="M516 196.788C516 194.696 518.44 193 521.45 193H561.55C564.56 193 567 194.696 567 196.788V243H521.45C518.44 243 516 241.304 516 239.212V196.788Z" fill="#E5CC44"/>
<path d="M592 196.788C592 194.696 592.598 193 593.336 193H603.164C603.902 193 604.5 194.696 604.5 196.788V243H592V196.788Z" fill="#E5CC44"/>
<path d="M634 196.788C634 194.696 640.497 193 648.51 193H691.49C699.503 193 706 194.696 706 196.788V243H634V196.788Z" fill="#E5CC44"/>
<path d="M156 305H132V326H156V305Z" fill="#E5CC44"/>
<path d="M197 305H168V326H197V305Z" fill="#E5CC44"/>
<path d="M153.985 294H134.015C132.902 294 132 297.582 132 302V307.385C132 311.804 132.902 315.385 134.015 315.385H153.985C155.098 315.385 156 311.804 156 307.385V302C156 297.582 155.098 294 153.985 294Z" fill="#F8F8F8"/>
<path d="M191.318 294H173.682C170.544 294 168 297.582 168 302V307.385C168 311.804 170.544 315.385 173.682 315.385H191.318C194.456 315.385 197 311.804 197 307.385V302C197 297.582 194.456 294 191.318 294Z" fill="#F8F8F8"/>
<path d="M79 279.788C79 277.696 81.5359 276 84.6642 276H126.336C129.464 276 132 277.696 132 279.788V326H84.6642C81.5359 326 79 324.304 79 322.212V279.788Z" fill="#E5CC44"/>
<path d="M156 279.788C156 277.696 156.574 276 157.282 276H166.718C167.426 276 168 277.696 168 279.788V326H156V279.788Z" fill="#E5CC44"/>
<path d="M197 279.788C197 277.696 204.219 276 213.122 276H260.878C269.781 276 277 277.696 277 279.788V326H197V279.788Z" fill="#E5CC44"/>
<path d="M297.911 243.22C298.03 242.822 298.03 242.178 297.911 241.78L295.973 235.299C295.854 234.9 295.661 234.9 295.543 235.299C295.424 235.696 295.424 236.341 295.543 236.739L297.265 242.5L295.543 248.262C295.424 248.659 295.424 249.304 295.543 249.702C295.661 250.099 295.854 250.099 295.973 249.702L297.911 243.22ZM76 243.519H297.695V241.482H76V243.519Z" fill="#919191"/>
<path d="M150 219H123V240H150V219Z" fill="#E5CC44"/>
<path d="M196 219H165V240H196V219Z" fill="#E5CC44"/>
<path d="M147.733 208H125.267C124.015 208 123 211.582 123 216V221.385C123 225.804 124.015 229.385 125.267 229.385H147.733C148.985 229.385 150 225.804 150 221.385V216C150 211.582 148.985 208 147.733 208Z" fill="#F8F8F8"/>
<path d="M189.926 208H171.074C167.719 208 165 211.582 165 216V221.385C165 225.804 167.719 229.385 171.074 229.385H189.926C193.281 229.385 196 225.804 196 221.385V216C196 211.582 193.281 208 189.926 208Z" fill="#F8F8F8"/>
<path d="M78 193.788C78 191.696 80.1531 190 82.8092 190H118.191C120.847 190 123 191.696 123 193.788V240H82.8092C80.1531 240 78 238.304 78 236.212V193.788Z" fill="#E5CC44"/>
<path d="M150 193.788C150 191.696 150.718 190 151.603 190H163.397C164.282 190 165 191.696 165 193.788V240H150V193.788Z" fill="#E5CC44"/>
<path d="M196 193.788C196 191.696 202.768 190 211.114 190H255.886C264.232 190 271 191.696 271 193.788V240H196V193.788Z" fill="#E5CC44"/>
<path d="M297.911 156.22C298.03 155.822 298.03 155.178 297.911 154.78L295.973 148.299C295.854 147.9 295.661 147.9 295.543 148.299C295.424 148.696 295.424 149.341 295.543 149.739L297.265 155.5L295.543 161.262C295.424 161.659 295.424 162.304 295.543 162.702C295.661 163.099 295.854 163.099 295.973 162.702L297.911 156.22ZM76 156.519H297.695V154.482H76V156.519Z" fill="#919191"/>
<path d="M160 132H140V153H160V132Z" fill="#E5CC44"/>
<path d="M202 132H170V153H202V132Z" fill="#E5CC44"/>
<path d="M158.321 121H141.679C140.752 121 140 124.582 140 129V134.385C140 138.804 140.752 142.385 141.679 142.385H158.321C159.248 142.385 160 138.804 160 134.385V129C160 124.582 159.248 121 158.321 121Z" fill="#F8F8F8"/>
<path d="M195.73 121H176.27C172.807 121 170 124.582 170 129V134.385C170 138.804 172.807 142.385 176.27 142.385H195.73C199.193 142.385 202 138.804 202 134.385V129C202 124.582 199.193 121 195.73 121Z" fill="#F8F8F8"/>
<path d="M78 106.788C78 104.696 80.9665 103 84.626 103H133.374C137.033 103 140 104.696 140 106.788V153H84.626C80.9665 153 78 151.304 78 149.212V106.788Z" fill="#E5CC44"/>
<path d="M160 106.788C160 104.696 160.479 103 161.069 103H168.931C169.522 103 170 104.696 170 106.788V153H160V106.788Z" fill="#E5CC44"/>
<path d="M202 106.788C202 104.696 207.685 103 214.696 103H252.304C259.315 103 265 104.696 265 106.788V153H202V106.788Z" fill="#E5CC44"/>
<path d="M387.734 204C387.672 203.875 387.621 203.652 387.582 203.332C387.078 203.855 386.477 204.117 385.777 204.117C385.152 204.117 384.639 203.941 384.236 203.59C383.838 203.234 383.639 202.785 383.639 202.242C383.639 201.582 383.889 201.07 384.389 200.707C384.893 200.34 385.6 200.156 386.51 200.156H387.564V199.658C387.564 199.279 387.451 198.979 387.225 198.756C386.998 198.529 386.664 198.416 386.223 198.416C385.836 198.416 385.512 198.514 385.25 198.709C384.988 198.904 384.857 199.141 384.857 199.418H383.768C383.768 199.102 383.879 198.797 384.102 198.504C384.328 198.207 384.633 197.973 385.016 197.801C385.402 197.629 385.826 197.543 386.287 197.543C387.018 197.543 387.59 197.727 388.004 198.094C388.418 198.457 388.633 198.959 388.648 199.6V202.518C388.648 203.1 388.723 203.562 388.871 203.906V204H387.734ZM385.936 203.174C386.275 203.174 386.598 203.086 386.902 202.91C387.207 202.734 387.428 202.506 387.564 202.225V200.924H386.715C385.387 200.924 384.723 201.312 384.723 202.09C384.723 202.43 384.836 202.695 385.062 202.887C385.289 203.078 385.58 203.174 385.936 203.174ZM392.346 202.529L393.916 197.66H395.023L392.75 204H391.924L389.627 197.66H390.734L392.346 202.529ZM398.615 204.117C397.756 204.117 397.057 203.836 396.518 203.273C395.979 202.707 395.709 201.951 395.709 201.006V200.807C395.709 200.178 395.828 199.617 396.066 199.125C396.309 198.629 396.645 198.242 397.074 197.965C397.508 197.684 397.977 197.543 398.48 197.543C399.305 197.543 399.945 197.814 400.402 198.357C400.859 198.9 401.088 199.678 401.088 200.689V201.141H396.793C396.809 201.766 396.99 202.271 397.338 202.658C397.689 203.041 398.135 203.232 398.674 203.232C399.057 203.232 399.381 203.154 399.646 202.998C399.912 202.842 400.145 202.635 400.344 202.377L401.006 202.893C400.475 203.709 399.678 204.117 398.615 204.117ZM398.48 198.434C398.043 198.434 397.676 198.594 397.379 198.914C397.082 199.23 396.898 199.676 396.828 200.25H400.004V200.168C399.973 199.617 399.824 199.191 399.559 198.891C399.293 198.586 398.934 198.434 398.48 198.434ZM405.412 198.633C405.248 198.605 405.07 198.592 404.879 198.592C404.168 198.592 403.686 198.895 403.432 199.5V204H402.348V197.66H403.402L403.42 198.393C403.775 197.826 404.279 197.543 404.932 197.543C405.143 197.543 405.303 197.57 405.412 197.625V198.633ZM410.094 204C410.031 203.875 409.98 203.652 409.941 203.332C409.438 203.855 408.836 204.117 408.137 204.117C407.512 204.117 406.998 203.941 406.596 203.59C406.197 203.234 405.998 202.785 405.998 202.242C405.998 201.582 406.248 201.07 406.748 200.707C407.252 200.34 407.959 200.156 408.869 200.156H409.924V199.658C409.924 199.279 409.811 198.979 409.584 198.756C409.357 198.529 409.023 198.416 408.582 198.416C408.195 198.416 407.871 198.514 407.609 198.709C407.348 198.904 407.217 199.141 407.217 199.418H406.127C406.127 199.102 406.238 198.797 406.461 198.504C406.688 198.207 406.992 197.973 407.375 197.801C407.762 197.629 408.186 197.543 408.646 197.543C409.377 197.543 409.949 197.727 410.363 198.094C410.777 198.457 410.992 198.959 411.008 199.6V202.518C411.008 203.1 411.082 203.562 411.23 203.906V204H410.094ZM408.295 203.174C408.635 203.174 408.957 203.086 409.262 202.91C409.566 202.734 409.787 202.506 409.924 202.225V200.924H409.074C407.746 200.924 407.082 201.312 407.082 202.09C407.082 202.43 407.195 202.695 407.422 202.887C407.648 203.078 407.939 203.174 408.295 203.174ZM412.449 200.777C412.449 199.789 412.678 199.004 413.135 198.422C413.592 197.836 414.197 197.543 414.951 197.543C415.725 197.543 416.328 197.816 416.762 198.363L416.814 197.66H417.805V203.848C417.805 204.668 417.561 205.314 417.072 205.787C416.588 206.26 415.936 206.496 415.115 206.496C414.658 206.496 414.211 206.398 413.773 206.203C413.336 206.008 413.002 205.74 412.771 205.4L413.334 204.75C413.799 205.324 414.367 205.611 415.039 205.611C415.566 205.611 415.977 205.463 416.27 205.166C416.566 204.869 416.715 204.451 416.715 203.912V203.367C416.281 203.867 415.689 204.117 414.939 204.117C414.197 204.117 413.596 203.818 413.135 203.221C412.678 202.623 412.449 201.809 412.449 200.777ZM413.539 200.9C413.539 201.615 413.686 202.178 413.979 202.588C414.271 202.994 414.682 203.197 415.209 203.197C415.893 203.197 416.395 202.887 416.715 202.266V199.371C416.383 198.766 415.885 198.463 415.221 198.463C414.693 198.463 414.281 198.668 413.984 199.078C413.688 199.488 413.539 200.096 413.539 200.9ZM422.076 204.117C421.217 204.117 420.518 203.836 419.979 203.273C419.439 202.707 419.17 201.951 419.17 201.006V200.807C419.17 200.178 419.289 199.617 419.527 199.125C419.77 198.629 420.105 198.242 420.535 197.965C420.969 197.684 421.438 197.543 421.941 197.543C422.766 197.543 423.406 197.814 423.863 198.357C424.32 198.9 424.549 199.678 424.549 200.689V201.141H420.254C420.27 201.766 420.451 202.271 420.799 202.658C421.15 203.041 421.596 203.232 422.135 203.232C422.518 203.232 422.842 203.154 423.107 202.998C423.373 202.842 423.605 202.635 423.805 202.377L424.467 202.893C423.936 203.709 423.139 204.117 422.076 204.117ZM421.941 198.434C421.504 198.434 421.137 198.594 420.84 198.914C420.543 199.23 420.359 199.676 420.289 200.25H423.465V200.168C423.434 199.617 423.285 199.191 423.02 198.891C422.754 198.586 422.395 198.434 421.941 198.434Z" fill="black"/>
<path d="M104.137 150H103.229V143.979L101.407 144.648V143.828L103.995 142.856H104.137V150ZM111.441 150H106.783V149.351L109.244 146.616C109.609 146.203 109.859 145.868 109.996 145.61C110.136 145.35 110.206 145.081 110.206 144.805C110.206 144.434 110.094 144.129 109.869 143.892C109.645 143.654 109.345 143.535 108.971 143.535C108.521 143.535 108.172 143.664 107.921 143.921C107.674 144.175 107.55 144.53 107.55 144.985H106.646C106.646 144.331 106.856 143.802 107.276 143.398C107.7 142.995 108.264 142.793 108.971 142.793C109.632 142.793 110.154 142.967 110.538 143.315C110.922 143.66 111.114 144.121 111.114 144.697C111.114 145.397 110.668 146.23 109.776 147.197L107.872 149.263H111.441V150ZM112.813 146.436L113.175 142.891H116.817V143.726H113.941L113.727 145.664C114.075 145.459 114.47 145.356 114.913 145.356C115.561 145.356 116.075 145.571 116.456 146.001C116.837 146.427 117.027 147.005 117.027 147.734C117.027 148.467 116.829 149.045 116.432 149.468C116.038 149.888 115.486 150.098 114.776 150.098C114.148 150.098 113.635 149.924 113.238 149.575C112.841 149.227 112.615 148.745 112.56 148.13H113.414C113.469 148.537 113.614 148.844 113.849 149.053C114.083 149.258 114.392 149.36 114.776 149.36C115.196 149.36 115.525 149.217 115.763 148.931C116.004 148.644 116.124 148.249 116.124 147.744C116.124 147.269 115.994 146.888 115.733 146.602C115.476 146.312 115.133 146.167 114.703 146.167C114.309 146.167 114 146.253 113.775 146.426L113.536 146.621L112.813 146.436Z" fill="black"/>
<path d="M98.4375 231.875C98.2487 232.1 98.0225 232.28 97.7588 232.417C97.4984 232.554 97.2119 232.622 96.8994 232.622C96.4893 232.622 96.1312 232.521 95.8252 232.319C95.5225 232.118 95.2881 231.834 95.1221 231.47C94.9561 231.102 94.873 230.697 94.873 230.254C94.873 229.779 94.9626 229.351 95.1416 228.97C95.3239 228.589 95.5811 228.298 95.9131 228.096C96.2451 227.894 96.6325 227.793 97.0752 227.793C97.7783 227.793 98.3317 228.057 98.7354 228.584C99.1423 229.108 99.3457 229.824 99.3457 230.732V230.996C99.3457 232.38 99.0723 233.39 98.5254 234.028C97.9785 234.663 97.1533 234.989 96.0498 235.005H95.874V234.243H96.0645C96.8099 234.23 97.3828 234.036 97.7832 233.662C98.1836 233.285 98.4017 232.689 98.4375 231.875ZM97.0459 231.875C97.3486 231.875 97.627 231.782 97.8809 231.597C98.138 231.411 98.3252 231.182 98.4424 230.908V230.547C98.4424 229.954 98.3138 229.473 98.0566 229.102C97.7995 228.73 97.474 228.545 97.0801 228.545C96.6829 228.545 96.3639 228.698 96.123 229.004C95.8822 229.307 95.7617 229.707 95.7617 230.205C95.7617 230.69 95.8773 231.09 96.1084 231.406C96.3428 231.719 96.6553 231.875 97.0459 231.875ZM105.049 231.968C105.049 233.026 104.868 233.812 104.507 234.326C104.146 234.84 103.581 235.098 102.812 235.098C102.054 235.098 101.493 234.847 101.128 234.346C100.763 233.841 100.575 233.089 100.562 232.09V230.884C100.562 229.839 100.742 229.062 101.104 228.555C101.465 228.047 102.031 227.793 102.803 227.793C103.568 227.793 104.131 228.039 104.492 228.53C104.854 229.019 105.039 229.774 105.049 230.796V231.968ZM104.146 230.732C104.146 229.967 104.038 229.411 103.823 229.062C103.608 228.711 103.268 228.535 102.803 228.535C102.34 228.535 102.004 228.709 101.792 229.058C101.58 229.406 101.471 229.941 101.465 230.664V232.109C101.465 232.878 101.576 233.446 101.797 233.813C102.021 234.178 102.36 234.36 102.812 234.36C103.258 234.36 103.589 234.188 103.804 233.843C104.022 233.498 104.136 232.954 104.146 232.212V230.732Z" fill="black"/>
<path d="M102.438 406.875C102.249 407.1 102.022 407.28 101.759 407.417C101.498 407.554 101.212 407.622 100.899 407.622C100.489 407.622 100.131 407.521 99.8252 407.319C99.5225 407.118 99.2881 406.834 99.1221 406.47C98.9561 406.102 98.873 405.697 98.873 405.254C98.873 404.779 98.9626 404.351 99.1416 403.97C99.3239 403.589 99.5811 403.298 99.9131 403.096C100.245 402.894 100.632 402.793 101.075 402.793C101.778 402.793 102.332 403.057 102.735 403.584C103.142 404.108 103.346 404.824 103.346 405.732V405.996C103.346 407.38 103.072 408.39 102.525 409.028C101.979 409.663 101.153 409.989 100.05 410.005H99.874V409.243H100.064C100.81 409.23 101.383 409.036 101.783 408.662C102.184 408.285 102.402 407.689 102.438 406.875ZM101.046 406.875C101.349 406.875 101.627 406.782 101.881 406.597C102.138 406.411 102.325 406.182 102.442 405.908V405.547C102.442 404.954 102.314 404.473 102.057 404.102C101.799 403.73 101.474 403.545 101.08 403.545C100.683 403.545 100.364 403.698 100.123 404.004C99.8822 404.307 99.7617 404.707 99.7617 405.205C99.7617 405.69 99.8773 406.09 100.108 406.406C100.343 406.719 100.655 406.875 101.046 406.875ZM108.053 406.875C107.864 407.1 107.638 407.28 107.374 407.417C107.114 407.554 106.827 407.622 106.515 407.622C106.104 407.622 105.746 407.521 105.44 407.319C105.138 407.118 104.903 406.834 104.737 406.47C104.571 406.102 104.488 405.697 104.488 405.254C104.488 404.779 104.578 404.351 104.757 403.97C104.939 403.589 105.196 403.298 105.528 403.096C105.86 402.894 106.248 402.793 106.69 402.793C107.394 402.793 107.947 403.057 108.351 403.584C108.757 404.108 108.961 404.824 108.961 405.732V405.996C108.961 407.38 108.688 408.39 108.141 409.028C107.594 409.663 106.769 409.989 105.665 410.005H105.489V409.243H105.68C106.425 409.23 106.998 409.036 107.398 408.662C107.799 408.285 108.017 407.689 108.053 406.875ZM106.661 406.875C106.964 406.875 107.242 406.782 107.496 406.597C107.753 406.411 107.94 406.182 108.058 405.908V405.547C108.058 404.954 107.929 404.473 107.672 404.102C107.415 403.73 107.089 403.545 106.695 403.545C106.298 403.545 105.979 403.698 105.738 404.004C105.497 404.307 105.377 404.707 105.377 405.205C105.377 405.69 105.493 406.09 105.724 406.406C105.958 406.719 106.271 406.875 106.661 406.875Z" fill="black"/>
<path d="M99.1367 321H98.2285V314.979L96.4072 315.648V314.828L98.9951 313.856H99.1367V321ZM106.241 317.968C106.241 319.026 106.061 319.812 105.699 320.326C105.338 320.84 104.773 321.098 104.005 321.098C103.246 321.098 102.685 320.847 102.32 320.346C101.956 319.841 101.767 319.089 101.754 318.09V316.884C101.754 315.839 101.935 315.062 102.296 314.555C102.657 314.047 103.224 313.793 103.995 313.793C104.76 313.793 105.323 314.039 105.685 314.53C106.046 315.019 106.231 315.774 106.241 316.796V317.968ZM105.338 316.732C105.338 315.967 105.23 315.411 105.016 315.062C104.801 314.711 104.461 314.535 103.995 314.535C103.533 314.535 103.196 314.709 102.984 315.058C102.773 315.406 102.664 315.941 102.657 316.664V318.109C102.657 318.878 102.768 319.446 102.989 319.813C103.214 320.178 103.552 320.36 104.005 320.36C104.451 320.36 104.781 320.188 104.996 319.843C105.214 319.498 105.328 318.954 105.338 318.212V316.732ZM110.943 313.886V314.652H110.777C110.074 314.665 109.514 314.874 109.098 315.277C108.681 315.681 108.44 316.249 108.375 316.981C108.749 316.552 109.26 316.337 109.908 316.337C110.527 316.337 111.02 316.555 111.388 316.991C111.759 317.427 111.944 317.991 111.944 318.681C111.944 319.413 111.744 319.999 111.344 320.438C110.947 320.878 110.413 321.098 109.742 321.098C109.062 321.098 108.51 320.837 108.087 320.316C107.664 319.792 107.452 319.118 107.452 318.295V317.948C107.452 316.64 107.73 315.64 108.287 314.95C108.847 314.257 109.679 313.902 110.782 313.886H110.943ZM109.757 317.089C109.448 317.089 109.163 317.182 108.902 317.367C108.642 317.553 108.461 317.785 108.36 318.065V318.397C108.36 318.983 108.492 319.455 108.756 319.813C109.02 320.172 109.348 320.351 109.742 320.351C110.149 320.351 110.468 320.201 110.699 319.901C110.934 319.602 111.051 319.21 111.051 318.725C111.051 318.236 110.932 317.842 110.694 317.543C110.46 317.24 110.147 317.089 109.757 317.089Z" fill="black"/>
<path d="M540.438 234.875C540.249 235.1 540.022 235.28 539.759 235.417C539.498 235.554 539.212 235.622 538.899 235.622C538.489 235.622 538.131 235.521 537.825 235.319C537.522 235.118 537.288 234.834 537.122 234.47C536.956 234.102 536.873 233.697 536.873 233.254C536.873 232.779 536.963 232.351 537.142 231.97C537.324 231.589 537.581 231.298 537.913 231.096C538.245 230.894 538.632 230.793 539.075 230.793C539.778 230.793 540.332 231.057 540.735 231.584C541.142 232.108 541.346 232.824 541.346 233.732V233.996C541.346 235.38 541.072 236.39 540.525 237.028C539.979 237.663 539.153 237.989 538.05 238.005H537.874V237.243H538.064C538.81 237.23 539.383 237.036 539.783 236.662C540.184 236.285 540.402 235.689 540.438 234.875ZM539.046 234.875C539.349 234.875 539.627 234.782 539.881 234.597C540.138 234.411 540.325 234.182 540.442 233.908V233.547C540.442 232.954 540.314 232.473 540.057 232.102C539.799 231.73 539.474 231.545 539.08 231.545C538.683 231.545 538.364 231.698 538.123 232.004C537.882 232.307 537.762 232.707 537.762 233.205C537.762 233.69 537.877 234.09 538.108 234.406C538.343 234.719 538.655 234.875 539.046 234.875ZM547.049 234.968C547.049 236.026 546.868 236.812 546.507 237.326C546.146 237.84 545.581 238.098 544.812 238.098C544.054 238.098 543.493 237.847 543.128 237.346C542.763 236.841 542.575 236.089 542.562 235.09V233.884C542.562 232.839 542.742 232.062 543.104 231.555C543.465 231.047 544.031 230.793 544.803 230.793C545.568 230.793 546.131 231.039 546.492 231.53C546.854 232.019 547.039 232.774 547.049 233.796V234.968ZM546.146 233.732C546.146 232.967 546.038 232.411 545.823 232.062C545.608 231.711 545.268 231.535 544.803 231.535C544.34 231.535 544.004 231.709 543.792 232.058C543.58 232.406 543.471 232.941 543.465 233.664V235.109C543.465 235.878 543.576 236.446 543.797 236.813C544.021 237.178 544.36 237.36 544.812 237.36C545.258 237.36 545.589 237.188 545.804 236.843C546.022 236.498 546.136 235.954 546.146 235.212V233.732Z" fill="black"/>
<path d="M362.213 241H361.305V234.979L359.483 235.648V234.828L362.071 233.856H362.213V241ZM369.317 237.968C369.317 239.026 369.137 239.812 368.775 240.326C368.414 240.84 367.849 241.098 367.081 241.098C366.323 241.098 365.761 240.847 365.396 240.346C365.032 239.841 364.843 239.089 364.83 238.09V236.884C364.83 235.839 365.011 235.062 365.372 234.555C365.733 234.047 366.3 233.793 367.071 233.793C367.836 233.793 368.399 234.039 368.761 234.53C369.122 235.019 369.308 235.774 369.317 236.796V237.968ZM368.414 236.732C368.414 235.967 368.307 235.411 368.092 235.062C367.877 234.711 367.537 234.535 367.071 234.535C366.609 234.535 366.272 234.709 366.061 235.058C365.849 235.406 365.74 235.941 365.733 236.664V238.109C365.733 238.878 365.844 239.446 366.065 239.813C366.29 240.178 366.629 240.36 367.081 240.36C367.527 240.36 367.857 240.188 368.072 239.843C368.29 239.498 368.404 238.954 368.414 238.212V236.732ZM371.788 237.006H372.467C372.893 236.999 373.229 236.887 373.473 236.669C373.717 236.451 373.839 236.156 373.839 235.785C373.839 234.952 373.424 234.535 372.594 234.535C372.203 234.535 371.891 234.647 371.656 234.872C371.425 235.093 371.31 235.388 371.31 235.756H370.406C370.406 235.193 370.611 234.726 371.021 234.354C371.435 233.98 371.959 233.793 372.594 233.793C373.264 233.793 373.79 233.97 374.171 234.325C374.552 234.68 374.742 235.173 374.742 235.805C374.742 236.114 374.641 236.413 374.439 236.703C374.241 236.993 373.969 237.209 373.624 237.353C374.015 237.476 374.316 237.681 374.527 237.968C374.742 238.254 374.85 238.604 374.85 239.018C374.85 239.656 374.641 240.162 374.225 240.536C373.808 240.91 373.266 241.098 372.599 241.098C371.931 241.098 371.388 240.917 370.968 240.556C370.551 240.194 370.343 239.717 370.343 239.125H371.251C371.251 239.499 371.373 239.799 371.617 240.023C371.861 240.248 372.188 240.36 372.599 240.36C373.035 240.36 373.368 240.246 373.6 240.019C373.831 239.791 373.946 239.464 373.946 239.037C373.946 238.624 373.819 238.306 373.565 238.085C373.312 237.864 372.945 237.75 372.467 237.743H371.788V237.006ZM378.771 237.187H380.753V238.041H378.771V240.287H377.862V238.041H375.88V237.187H377.862V235.111H378.771V237.187ZM384.732 241H383.824V234.979L382.003 235.648V234.828L384.591 233.856H384.732V241ZM392.037 241H387.379V240.351L389.84 237.616C390.204 237.203 390.455 236.868 390.592 236.61C390.732 236.35 390.802 236.081 390.802 235.805C390.802 235.434 390.689 235.129 390.465 234.892C390.24 234.654 389.941 234.535 389.566 234.535C389.117 234.535 388.767 234.664 388.517 234.921C388.269 235.175 388.146 235.53 388.146 235.985H387.242C387.242 235.331 387.452 234.802 387.872 234.398C388.295 233.995 388.86 233.793 389.566 233.793C390.227 233.793 390.75 233.967 391.134 234.315C391.518 234.66 391.71 235.121 391.71 235.697C391.71 236.397 391.264 237.23 390.372 238.197L388.468 240.263H392.037V241ZM393.409 237.436L393.771 233.891H397.413V234.726H394.537L394.322 236.664C394.671 236.459 395.066 236.356 395.509 236.356C396.157 236.356 396.671 236.571 397.052 237.001C397.433 237.427 397.623 238.005 397.623 238.734C397.623 239.467 397.424 240.045 397.027 240.468C396.633 240.888 396.082 241.098 395.372 241.098C394.744 241.098 394.231 240.924 393.834 240.575C393.437 240.227 393.211 239.745 393.155 239.13H394.01C394.065 239.537 394.21 239.844 394.444 240.053C394.679 240.258 394.988 240.36 395.372 240.36C395.792 240.36 396.121 240.217 396.358 239.931C396.599 239.644 396.72 239.249 396.72 238.744C396.72 238.269 396.59 237.888 396.329 237.602C396.072 237.312 395.729 237.167 395.299 237.167C394.905 237.167 394.596 237.253 394.371 237.426L394.132 237.621L393.409 237.436ZM401.29 237.187H403.272V238.041H401.29V240.287H400.382V238.041H398.399V237.187H400.382V235.111H401.29V237.187ZM407.745 237.875C407.556 238.1 407.33 238.28 407.066 238.417C406.806 238.554 406.52 238.622 406.207 238.622C405.797 238.622 405.439 238.521 405.133 238.319C404.83 238.118 404.596 237.834 404.43 237.47C404.264 237.102 404.181 236.697 404.181 236.254C404.181 235.779 404.27 235.351 404.449 234.97C404.632 234.589 404.889 234.298 405.221 234.096C405.553 233.894 405.94 233.793 406.383 233.793C407.086 233.793 407.639 234.057 408.043 234.584C408.45 235.108 408.653 235.824 408.653 236.732V236.996C408.653 238.38 408.38 239.39 407.833 240.028C407.286 240.663 406.461 240.989 405.357 241.005H405.182V240.243H405.372C406.118 240.23 406.69 240.036 407.091 239.662C407.491 239.285 407.709 238.689 407.745 237.875ZM406.354 237.875C406.656 237.875 406.935 237.782 407.188 237.597C407.446 237.411 407.633 237.182 407.75 236.908V236.547C407.75 235.954 407.621 235.473 407.364 235.102C407.107 234.73 406.782 234.545 406.388 234.545C405.991 234.545 405.672 234.698 405.431 235.004C405.19 235.307 405.069 235.707 405.069 236.205C405.069 236.69 405.185 237.09 405.416 237.406C405.65 237.719 405.963 237.875 406.354 237.875ZM414.356 237.968C414.356 239.026 414.176 239.812 413.814 240.326C413.453 240.84 412.888 241.098 412.12 241.098C411.362 241.098 410.8 240.847 410.436 240.346C410.071 239.841 409.882 239.089 409.869 238.09V236.884C409.869 235.839 410.05 235.062 410.411 234.555C410.772 234.047 411.339 233.793 412.11 233.793C412.875 233.793 413.438 234.039 413.8 234.53C414.161 235.019 414.347 235.774 414.356 236.796V237.968ZM413.453 236.732C413.453 235.967 413.346 235.411 413.131 235.062C412.916 234.711 412.576 234.535 412.11 234.535C411.648 234.535 411.311 234.709 411.1 235.058C410.888 235.406 410.779 235.941 410.772 236.664V238.109C410.772 238.878 410.883 239.446 411.104 239.813C411.329 240.178 411.668 240.36 412.12 240.36C412.566 240.36 412.896 240.188 413.111 239.843C413.329 239.498 413.443 238.954 413.453 238.212V236.732ZM418.194 237.187H420.177V238.041H418.194V240.287H417.286V238.041H415.304V237.187H417.286V235.111H418.194V237.187ZM424.156 241H423.248V234.979L421.427 235.648V234.828L424.015 233.856H424.156V241ZM431.261 237.968C431.261 239.026 431.08 239.812 430.719 240.326C430.357 240.84 429.793 241.098 429.024 241.098C428.266 241.098 427.704 240.847 427.34 240.346C426.975 239.841 426.786 239.089 426.773 238.09V236.884C426.773 235.839 426.954 235.062 427.315 234.555C427.677 234.047 428.243 233.793 429.015 233.793C429.78 233.793 430.343 234.039 430.704 234.53C431.065 235.019 431.251 235.774 431.261 236.796V237.968ZM430.357 236.732C430.357 235.967 430.25 235.411 430.035 235.062C429.82 234.711 429.48 234.535 429.015 234.535C428.552 234.535 428.215 234.709 428.004 235.058C427.792 235.406 427.683 235.941 427.677 236.664V238.109C427.677 238.878 427.787 239.446 428.009 239.813C428.233 240.178 428.572 240.36 429.024 240.36C429.47 240.36 429.801 240.188 430.016 239.843C430.234 239.498 430.348 238.954 430.357 238.212V236.732ZM435.963 233.886V234.652H435.797C435.094 234.665 434.534 234.874 434.117 235.277C433.701 235.681 433.46 236.249 433.395 236.981C433.769 236.552 434.28 236.337 434.928 236.337C435.546 236.337 436.039 236.555 436.407 236.991C436.778 237.427 436.964 237.991 436.964 238.681C436.964 239.413 436.764 239.999 436.363 240.438C435.966 240.878 435.432 241.098 434.762 241.098C434.081 241.098 433.53 240.837 433.106 240.316C432.683 239.792 432.472 239.118 432.472 238.295V237.948C432.472 236.64 432.75 235.64 433.307 234.95C433.867 234.257 434.698 233.902 435.802 233.886H435.963ZM434.776 237.089C434.467 237.089 434.182 237.182 433.922 237.367C433.661 237.553 433.481 237.785 433.38 238.065V238.397C433.38 238.983 433.512 239.455 433.775 239.813C434.039 240.172 434.368 240.351 434.762 240.351C435.169 240.351 435.488 240.201 435.719 239.901C435.953 239.602 436.07 239.21 436.07 238.725C436.07 238.236 435.951 237.842 435.714 237.543C435.479 237.24 435.167 237.089 434.776 237.089ZM440.714 237.187H442.696V238.041H440.714V240.287H439.806V238.041H437.823V237.187H439.806V235.111H440.714V237.187ZM447.169 237.875C446.98 238.1 446.754 238.28 446.49 238.417C446.23 238.554 445.943 238.622 445.631 238.622C445.221 238.622 444.863 238.521 444.557 238.319C444.254 238.118 444.02 237.834 443.854 237.47C443.688 237.102 443.604 236.697 443.604 236.254C443.604 235.779 443.694 235.351 443.873 234.97C444.055 234.589 444.312 234.298 444.645 234.096C444.977 233.894 445.364 233.793 445.807 233.793C446.51 233.793 447.063 234.057 447.467 234.584C447.874 235.108 448.077 235.824 448.077 236.732V236.996C448.077 238.38 447.804 239.39 447.257 240.028C446.71 240.663 445.885 240.989 444.781 241.005H444.605V240.243H444.796C445.541 240.23 446.114 240.036 446.515 239.662C446.915 239.285 447.133 238.689 447.169 237.875ZM445.777 237.875C446.08 237.875 446.358 237.782 446.612 237.597C446.869 237.411 447.057 237.182 447.174 236.908V236.547C447.174 235.954 447.045 235.473 446.788 235.102C446.531 234.73 446.205 234.545 445.812 234.545C445.414 234.545 445.095 234.698 444.854 235.004C444.614 235.307 444.493 235.707 444.493 236.205C444.493 236.69 444.609 237.09 444.84 237.406C445.074 237.719 445.387 237.875 445.777 237.875ZM452.784 237.875C452.595 238.1 452.369 238.28 452.105 238.417C451.845 238.554 451.559 238.622 451.246 238.622C450.836 238.622 450.478 238.521 450.172 238.319C449.869 238.118 449.635 237.834 449.469 237.47C449.303 237.102 449.22 236.697 449.22 236.254C449.22 235.779 449.309 235.351 449.488 234.97C449.671 234.589 449.928 234.298 450.26 234.096C450.592 233.894 450.979 233.793 451.422 233.793C452.125 233.793 452.678 234.057 453.082 234.584C453.489 235.108 453.692 235.824 453.692 236.732V236.996C453.692 238.38 453.419 239.39 452.872 240.028C452.325 240.663 451.5 240.989 450.396 241.005H450.221V240.243H450.411C451.157 240.23 451.729 240.036 452.13 239.662C452.53 239.285 452.748 238.689 452.784 237.875ZM451.393 237.875C451.695 237.875 451.974 237.782 452.228 237.597C452.485 237.411 452.672 237.182 452.789 236.908V236.547C452.789 235.954 452.66 235.473 452.403 235.102C452.146 234.73 451.821 234.545 451.427 234.545C451.03 234.545 450.711 234.698 450.47 235.004C450.229 235.307 450.108 235.707 450.108 236.205C450.108 236.69 450.224 237.09 450.455 237.406C450.689 237.719 451.002 237.875 451.393 237.875ZM404.698 253.436L405.06 249.891H408.702V250.726H405.826L405.611 252.664C405.96 252.459 406.355 252.356 406.798 252.356C407.446 252.356 407.96 252.571 408.341 253.001C408.722 253.427 408.912 254.005 408.912 254.734C408.912 255.467 408.714 256.045 408.316 256.468C407.923 256.888 407.371 257.098 406.661 257.098C406.033 257.098 405.52 256.924 405.123 256.575C404.726 256.227 404.5 255.745 404.444 255.13H405.299C405.354 255.537 405.499 255.844 405.733 256.053C405.968 256.258 406.277 256.36 406.661 256.36C407.081 256.36 407.41 256.217 407.647 255.931C407.888 255.644 408.009 255.249 408.009 254.744C408.009 254.269 407.879 253.888 407.618 253.602C407.361 253.312 407.018 253.167 406.588 253.167C406.194 253.167 405.885 253.253 405.66 253.426L405.421 253.621L404.698 253.436Z" fill="black"/>
<line x1="358" y1="245.5" x2="456" y2="245.5" stroke="black"/>
<line x1="355.5" y1="227" x2="355.5" y2="261" stroke="black"/>
<line x1="458.5" y1="227" x2="458.5" y2="261" stroke="black"/>
<line x1="355" y1="260.5" x2="360" y2="260.5" stroke="black"/>
<line x1="453" y1="260.5" x2="458" y2="260.5" stroke="black"/>
</svg>
