<svg width="956" height="257" viewBox="0 0 956 257" fill="none" xmlns="http://www.w3.org/2000/svg">
<rect x="0.5" y="83.2181" width="149.288" height="93.3142" rx="8.5" fill="#EDEDED" stroke="black"/>
<rect x="509.81" y="82.4451" width="149.288" height="93.3142" rx="8.5" fill="#EDEDED" stroke="black"/>
<rect x="255.155" y="82.4451" width="149.288" height="93.3142" rx="8.5" fill="#EDEDED" stroke="black"/>
<rect x="807.882" y="10.5499" width="147.618" height="67.0299" rx="8.5" fill="#9EFC9C" stroke="black"/>
<path d="M827.396 56.9633C826.889 56.9633 826.339 56.8917 825.746 56.7485C825.154 56.6117 824.633 56.4229 824.184 56.1821L824.682 54.6879C825.04 54.8767 825.463 55.033 825.951 55.1567C826.439 55.2804 826.915 55.3422 827.377 55.3422C828.236 55.3422 828.865 55.1013 829.262 54.6196C829.665 54.1378 829.867 53.4509 829.867 52.559V51.5531C829.164 52.4516 828.197 52.9008 826.967 52.9008C826.107 52.9008 825.365 52.6892 824.74 52.266C824.115 51.8363 823.633 51.2406 823.295 50.4789C822.963 49.7107 822.797 48.822 822.797 47.8129V47.6078C822.797 46.475 822.963 45.4822 823.295 44.6293C823.633 43.7765 824.115 43.1156 824.74 42.6469C825.365 42.1716 826.114 41.934 826.986 41.934C828.295 41.934 829.298 42.4418 829.994 43.4574L830.17 42.1293H833.1V43.3598L831.791 43.643V52.559C831.791 53.9262 831.41 55.0004 830.648 55.7817C829.887 56.5694 828.803 56.9633 827.396 56.9633ZM827.445 51.3383C828.025 51.3383 828.51 51.2081 828.9 50.9477C829.291 50.6808 829.613 50.3064 829.867 49.8246V44.9613C829.62 44.5121 829.298 44.1573 828.9 43.8969C828.503 43.63 828.025 43.4965 827.465 43.4965C826.547 43.4965 825.86 43.8806 825.404 44.6488C824.949 45.4171 824.721 46.4034 824.721 47.6078V47.8129C824.721 48.8741 824.945 49.727 825.395 50.3715C825.844 51.016 826.527 51.3383 827.445 51.3383ZM834.047 52.6957V51.4653L835.639 51.1918V43.643L834.047 43.3696V42.1293H837.357L837.523 43.477L837.543 43.6625C837.842 43.1222 838.21 42.699 838.646 42.393C839.089 42.087 839.594 41.934 840.16 41.934C840.362 41.934 840.567 41.9535 840.775 41.9926C840.99 42.0252 841.143 42.0577 841.234 42.0903L840.98 43.8774L839.643 43.7992C839.135 43.7667 838.708 43.8839 838.363 44.1508C838.018 44.4112 837.751 44.7628 837.563 45.2055V51.1918L839.154 51.4653V52.6957H834.047ZM845.824 52.9008C844.724 52.9008 843.887 52.6339 843.314 52.1C842.742 51.5597 842.455 50.8012 842.455 49.8246C842.455 48.822 842.865 48.018 843.686 47.4125C844.506 46.8005 845.645 46.4946 847.104 46.4946H848.988V45.4594C848.988 44.8214 848.793 44.3266 848.402 43.975C848.018 43.6235 847.475 43.4477 846.771 43.4477C846.329 43.4477 845.945 43.503 845.619 43.6137C845.294 43.7179 844.997 43.8643 844.73 44.0531L844.525 45.5278H843.041V43.1059C843.998 42.3246 845.251 41.934 846.801 41.934C848.083 41.934 849.089 42.24 849.818 42.852C850.548 43.464 850.912 44.3396 850.912 45.4789V50.5668C850.912 50.7035 850.912 50.837 850.912 50.9672C850.919 51.0974 850.928 51.2276 850.941 51.3578L851.967 51.4653V52.6957H849.203C849.092 52.1619 849.024 51.6768 848.998 51.2406C848.627 51.7159 848.161 52.113 847.602 52.4321C847.048 52.7446 846.456 52.9008 845.824 52.9008ZM846.107 51.2895C846.745 51.2895 847.328 51.1365 847.855 50.8305C848.383 50.5245 848.76 50.1567 848.988 49.727V47.8129H847.035C846.15 47.8129 845.486 48.0245 845.043 48.4477C844.6 48.8709 844.379 49.3429 844.379 49.8637C844.379 50.8142 844.955 51.2895 846.107 51.2895ZM853.461 52.6957V51.4653L855.053 51.1918V43.643L853.461 43.3696V42.1293H856.771L856.908 43.7016C857.26 43.1417 857.699 42.7087 858.227 42.4028C858.76 42.0903 859.366 41.934 860.043 41.934C861.182 41.934 862.064 42.2693 862.689 42.9399C863.314 43.6039 863.627 44.6326 863.627 46.0258V51.1918L865.219 51.4653V52.6957H860.111V51.4653L861.703 51.1918V46.0649C861.703 45.1339 861.518 44.4731 861.146 44.0824C860.782 43.6918 860.222 43.4965 859.467 43.4965C858.913 43.4965 858.422 43.63 857.992 43.8969C857.569 44.1638 857.23 44.5284 856.977 44.9906V51.1918L858.568 51.4653V52.6957H853.461ZM869.926 52.8617C869.145 52.8617 868.523 52.6339 868.061 52.1781C867.605 51.7159 867.377 50.9802 867.377 49.9711V43.5551H865.707V42.1293H867.377V39.5805H869.301V42.1293H871.596V43.5551H869.301V49.9711C869.301 50.4789 869.402 50.8533 869.604 51.0942C869.805 51.335 870.076 51.4555 870.414 51.4555C870.642 51.4555 870.896 51.436 871.176 51.3969C871.456 51.3513 871.674 51.3123 871.83 51.2797L872.094 52.5395C871.814 52.6241 871.469 52.699 871.059 52.7641C870.655 52.8292 870.277 52.8617 869.926 52.8617ZM881.723 52.9008C880.622 52.9008 879.786 52.6339 879.213 52.1C878.64 51.5597 878.354 50.8012 878.354 49.8246C878.354 48.822 878.764 48.018 879.584 47.4125C880.404 46.8005 881.544 46.4946 883.002 46.4946H884.887V45.4594C884.887 44.8214 884.691 44.3266 884.301 43.975C883.917 43.6235 883.373 43.4477 882.67 43.4477C882.227 43.4477 881.843 43.503 881.518 43.6137C881.192 43.7179 880.896 43.8643 880.629 44.0531L880.424 45.5278H878.939V43.1059C879.896 42.3246 881.15 41.934 882.699 41.934C883.982 41.934 884.988 42.24 885.717 42.852C886.446 43.464 886.811 44.3396 886.811 45.4789V50.5668C886.811 50.7035 886.811 50.837 886.811 50.9672C886.817 51.0974 886.827 51.2276 886.84 51.3578L887.865 51.4653V52.6957H885.102C884.991 52.1619 884.923 51.6768 884.896 51.2406C884.525 51.7159 884.06 52.113 883.5 52.4321C882.947 52.7446 882.354 52.9008 881.723 52.9008ZM882.006 51.2895C882.644 51.2895 883.227 51.1365 883.754 50.8305C884.281 50.5245 884.659 50.1567 884.887 49.727V47.8129H882.934C882.048 47.8129 881.384 48.0245 880.941 48.4477C880.499 48.8709 880.277 49.3429 880.277 49.8637C880.277 50.8142 880.854 51.2895 882.006 51.2895ZM894.135 52.9008C893.178 52.9008 892.344 52.6794 891.635 52.2367C890.925 51.7875 890.375 51.1658 889.984 50.3715C889.594 49.5772 889.398 48.6593 889.398 47.6176V47.2074C889.398 46.2048 889.587 45.3064 889.965 44.5121C890.342 43.7179 890.886 43.0896 891.596 42.6274C892.305 42.1651 893.152 41.934 894.135 41.934C894.988 41.934 895.733 42.074 896.371 42.3539C897.016 42.6339 897.556 43.018 897.992 43.5063L898.041 46.0453H896.537L896.205 44.1996C895.984 43.9718 895.707 43.7895 895.375 43.6528C895.043 43.516 894.652 43.4477 894.203 43.4477C893.63 43.4477 893.126 43.6169 892.689 43.9555C892.26 44.294 891.924 44.7465 891.684 45.3129C891.443 45.8793 891.322 46.5108 891.322 47.2074V47.6176C891.322 48.7765 891.573 49.6977 892.074 50.3813C892.576 51.0584 893.259 51.3969 894.125 51.3969C894.776 51.3969 895.316 51.2179 895.746 50.8598C896.176 50.5017 896.439 50.0102 896.537 49.3852H898.266L898.285 49.4438C898.253 50.0492 898.074 50.6156 897.748 51.143C897.423 51.6703 896.957 52.0968 896.352 52.4223C895.753 52.7413 895.014 52.9008 894.135 52.9008ZM904.955 52.9008C903.998 52.9008 903.165 52.6794 902.455 52.2367C901.745 51.7875 901.195 51.1658 900.805 50.3715C900.414 49.5772 900.219 48.6593 900.219 47.6176V47.2074C900.219 46.2048 900.408 45.3064 900.785 44.5121C901.163 43.7179 901.706 43.0896 902.416 42.6274C903.126 42.1651 903.972 41.934 904.955 41.934C905.808 41.934 906.553 42.074 907.191 42.3539C907.836 42.6339 908.376 43.018 908.813 43.5063L908.861 46.0453H907.357L907.025 44.1996C906.804 43.9718 906.527 43.7895 906.195 43.6528C905.863 43.516 905.473 43.4477 905.023 43.4477C904.451 43.4477 903.946 43.6169 903.51 43.9555C903.08 44.294 902.745 44.7465 902.504 45.3129C902.263 45.8793 902.143 46.5108 902.143 47.2074V47.6176C902.143 48.7765 902.393 49.6977 902.895 50.3813C903.396 51.0584 904.079 51.3969 904.945 51.3969C905.596 51.3969 906.137 51.2179 906.566 50.8598C906.996 50.5017 907.26 50.0102 907.357 49.3852H909.086L909.105 49.4438C909.073 50.0492 908.894 50.6156 908.568 51.143C908.243 51.6703 907.777 52.0968 907.172 52.4223C906.573 52.7413 905.834 52.9008 904.955 52.9008ZM915.678 52.9008C914.701 52.9008 913.852 52.6794 913.129 52.2367C912.406 51.7875 911.846 51.1658 911.449 50.3715C911.059 49.5772 910.863 48.6593 910.863 47.6176V47.1879C910.863 46.1853 911.068 45.2901 911.479 44.5024C911.895 43.7081 912.445 43.0831 913.129 42.6274C913.819 42.1651 914.571 41.934 915.385 41.934C916.804 41.934 917.878 42.3637 918.607 43.2231C919.343 44.0824 919.711 45.2283 919.711 46.6606V47.8617H912.855L912.826 47.9106C912.846 48.9262 913.103 49.7628 913.598 50.4203C914.092 51.0714 914.786 51.3969 915.678 51.3969C916.329 51.3969 916.898 51.3058 917.387 51.1235C917.882 50.9347 918.308 50.6775 918.666 50.352L919.418 51.602C919.04 51.9666 918.539 52.2758 917.914 52.5297C917.296 52.7771 916.55 52.9008 915.678 52.9008ZM912.914 46.3578H917.787V46.1039C917.787 45.3487 917.585 44.7172 917.182 44.2094C916.778 43.7016 916.179 43.4477 915.385 43.4477C914.74 43.4477 914.19 43.7211 913.734 44.268C913.279 44.8084 912.999 45.4887 912.895 46.309L912.914 46.3578ZM925.551 52.9008C924.841 52.9008 924.177 52.8292 923.559 52.686C922.94 52.5427 922.283 52.3214 921.586 52.0219L921.566 49.5121H923.021L923.383 51.0258C924.073 51.3123 924.796 51.4555 925.551 51.4555C926.332 51.4555 926.892 51.3058 927.23 51.0063C927.569 50.7068 927.738 50.3357 927.738 49.893C927.738 49.4763 927.566 49.1248 927.221 48.8383C926.882 48.5453 926.264 48.2979 925.365 48.0961C924.089 47.8031 923.148 47.4125 922.543 46.9242C921.944 46.4294 921.645 45.7719 921.645 44.9516C921.645 44.3787 921.811 43.8676 922.143 43.4184C922.475 42.9627 922.937 42.6013 923.529 42.3344C924.122 42.0675 924.812 41.934 925.6 41.934C926.4 41.934 927.084 42.0252 927.65 42.2074C928.223 42.3897 928.721 42.6339 929.145 42.9399L929.242 45.352H927.797L927.484 43.9457C927.257 43.7765 926.986 43.6462 926.674 43.5551C926.361 43.464 926.003 43.4184 925.6 43.4184C925.001 43.4184 924.512 43.5584 924.135 43.8383C923.764 44.1183 923.578 44.4698 923.578 44.893C923.578 45.1404 923.63 45.3552 923.734 45.5375C923.845 45.7198 924.053 45.8858 924.359 46.0356C924.665 46.1788 925.115 46.322 925.707 46.4653C927.178 46.8103 928.204 47.2498 928.783 47.7836C929.369 48.3175 929.662 48.975 929.662 49.7563C929.662 50.6482 929.33 51.3969 928.666 52.0024C928.008 52.6013 926.97 52.9008 925.551 52.9008ZM935.531 52.9008C934.822 52.9008 934.158 52.8292 933.539 52.686C932.921 52.5427 932.263 52.3214 931.566 52.0219L931.547 49.5121H933.002L933.363 51.0258C934.053 51.3123 934.776 51.4555 935.531 51.4555C936.313 51.4555 936.872 51.3058 937.211 51.0063C937.549 50.7068 937.719 50.3357 937.719 49.893C937.719 49.4763 937.546 49.1248 937.201 48.8383C936.863 48.5453 936.244 48.2979 935.346 48.0961C934.07 47.8031 933.129 47.4125 932.523 46.9242C931.924 46.4294 931.625 45.7719 931.625 44.9516C931.625 44.3787 931.791 43.8676 932.123 43.4184C932.455 42.9627 932.917 42.6013 933.51 42.3344C934.102 42.0675 934.792 41.934 935.58 41.934C936.381 41.934 937.064 42.0252 937.631 42.2074C938.204 42.3897 938.702 42.6339 939.125 42.9399L939.223 45.352H937.777L937.465 43.9457C937.237 43.7765 936.967 43.6462 936.654 43.5551C936.342 43.464 935.984 43.4184 935.58 43.4184C934.981 43.4184 934.493 43.5584 934.115 43.8383C933.744 44.1183 933.559 44.4698 933.559 44.893C933.559 45.1404 933.611 45.3552 933.715 45.5375C933.826 45.7198 934.034 45.8858 934.34 46.0356C934.646 46.1788 935.095 46.322 935.688 46.4653C937.159 46.8103 938.184 47.2498 938.764 47.7836C939.35 48.3175 939.643 48.975 939.643 49.7563C939.643 50.6482 939.311 51.3969 938.646 52.0024C937.989 52.6013 936.951 52.9008 935.531 52.9008Z" fill="black"/>
<rect x="807.882" y="180.625" width="147.618" height="67.0299" rx="8.5" fill="#FF806F" stroke="black"/>
<path d="M829.154 222.976C828.295 222.976 827.556 222.764 826.938 222.341C826.326 221.911 825.857 221.315 825.531 220.554C825.206 219.792 825.043 218.903 825.043 217.888V217.683C825.043 216.55 825.206 215.557 825.531 214.704C825.857 213.851 826.329 213.19 826.947 212.722C827.566 212.246 828.308 212.009 829.174 212.009C829.799 212.009 830.349 212.126 830.824 212.36C831.306 212.588 831.716 212.92 832.055 213.356V209.05L830.463 208.776V207.536H833.979V221.267L835.57 221.54V222.77H832.309L832.152 221.511C831.449 222.487 830.45 222.976 829.154 222.976ZM829.643 221.413C830.216 221.413 830.697 221.283 831.088 221.022C831.479 220.762 831.801 220.394 832.055 219.919V215.017C831.807 214.574 831.485 214.222 831.088 213.962C830.691 213.701 830.216 213.571 829.662 213.571C828.744 213.571 828.064 213.952 827.621 214.714C827.185 215.476 826.967 216.465 826.967 217.683V217.888C826.967 218.949 827.185 219.802 827.621 220.446C828.057 221.091 828.731 221.413 829.643 221.413ZM841.654 222.976C840.678 222.976 839.828 222.754 839.105 222.311C838.383 221.862 837.823 221.24 837.426 220.446C837.035 219.652 836.84 218.734 836.84 217.692V217.263C836.84 216.26 837.045 215.365 837.455 214.577C837.872 213.783 838.422 213.158 839.105 212.702C839.796 212.24 840.548 212.009 841.361 212.009C842.781 212.009 843.855 212.438 844.584 213.298C845.32 214.157 845.688 215.303 845.688 216.735V217.936H838.832L838.803 217.985C838.822 219.001 839.079 219.838 839.574 220.495C840.069 221.146 840.762 221.472 841.654 221.472C842.305 221.472 842.875 221.38 843.363 221.198C843.858 221.009 844.285 220.752 844.643 220.427L845.395 221.677C845.017 222.041 844.516 222.351 843.891 222.604C843.272 222.852 842.527 222.976 841.654 222.976ZM838.891 216.433H843.764V216.179C843.764 215.423 843.562 214.792 843.158 214.284C842.755 213.776 842.156 213.522 841.361 213.522C840.717 213.522 840.167 213.796 839.711 214.343C839.255 214.883 838.975 215.563 838.871 216.384L838.891 216.433ZM847.191 222.77V221.54L848.783 221.267V213.718L847.191 213.444V212.204H850.502L850.639 213.776C850.99 213.216 851.43 212.783 851.957 212.477C852.491 212.165 853.096 212.009 853.773 212.009C854.913 212.009 855.795 212.344 856.42 213.015C857.045 213.679 857.357 214.707 857.357 216.101V221.267L858.949 221.54V222.77H853.842V221.54L855.434 221.267V216.14C855.434 215.209 855.248 214.548 854.877 214.157C854.512 213.767 853.952 213.571 853.197 213.571C852.644 213.571 852.152 213.705 851.723 213.972C851.299 214.239 850.961 214.603 850.707 215.065V221.267L852.299 221.54V222.77H847.191ZM861.732 227.038C861.583 227.038 861.387 227.018 861.146 226.979C860.906 226.947 860.72 226.914 860.59 226.882L860.785 225.368C860.896 225.381 861.049 225.391 861.244 225.397C861.439 225.41 861.573 225.417 861.645 225.417C862.055 225.417 862.387 225.261 862.641 224.948C862.901 224.636 863.142 224.209 863.363 223.669L863.822 222.556L860.082 213.601L858.949 213.444V212.204H863.383V213.444L862.104 213.64L864.164 218.923L864.662 220.3H864.721L867.162 213.64L865.814 213.444V212.204H870.16V213.444L869.066 213.601L864.906 224.392C864.613 225.16 864.223 225.791 863.734 226.286C863.246 226.787 862.579 227.038 861.732 227.038ZM879.477 222.976C878.376 222.976 877.54 222.709 876.967 222.175C876.394 221.634 876.107 220.876 876.107 219.899C876.107 218.897 876.518 218.093 877.338 217.487C878.158 216.875 879.298 216.569 880.756 216.569H882.641V215.534C882.641 214.896 882.445 214.401 882.055 214.05C881.671 213.698 881.127 213.522 880.424 213.522C879.981 213.522 879.597 213.578 879.271 213.688C878.946 213.793 878.65 213.939 878.383 214.128L878.178 215.602H876.693V213.181C877.65 212.399 878.904 212.009 880.453 212.009C881.736 212.009 882.742 212.315 883.471 212.927C884.2 213.539 884.564 214.414 884.564 215.554V220.642C884.564 220.778 884.564 220.912 884.564 221.042C884.571 221.172 884.581 221.302 884.594 221.433L885.619 221.54V222.77H882.855C882.745 222.237 882.676 221.752 882.65 221.315C882.279 221.791 881.814 222.188 881.254 222.507C880.701 222.819 880.108 222.976 879.477 222.976ZM879.76 221.364C880.398 221.364 880.98 221.211 881.508 220.905C882.035 220.599 882.413 220.231 882.641 219.802V217.888H880.688C879.802 217.888 879.138 218.099 878.695 218.522C878.253 218.946 878.031 219.418 878.031 219.938C878.031 220.889 878.607 221.364 879.76 221.364ZM891.889 222.976C890.932 222.976 890.098 222.754 889.389 222.311C888.679 221.862 888.129 221.24 887.738 220.446C887.348 219.652 887.152 218.734 887.152 217.692V217.282C887.152 216.28 887.341 215.381 887.719 214.587C888.096 213.793 888.64 213.164 889.35 212.702C890.059 212.24 890.906 212.009 891.889 212.009C892.742 212.009 893.487 212.149 894.125 212.429C894.77 212.709 895.31 213.093 895.746 213.581L895.795 216.12H894.291L893.959 214.274C893.738 214.046 893.461 213.864 893.129 213.727C892.797 213.591 892.406 213.522 891.957 213.522C891.384 213.522 890.88 213.692 890.443 214.03C890.014 214.369 889.678 214.821 889.438 215.388C889.197 215.954 889.076 216.586 889.076 217.282V217.692C889.076 218.851 889.327 219.772 889.828 220.456C890.329 221.133 891.013 221.472 891.879 221.472C892.53 221.472 893.07 221.293 893.5 220.935C893.93 220.576 894.193 220.085 894.291 219.46H896.02L896.039 219.518C896.007 220.124 895.827 220.69 895.502 221.218C895.176 221.745 894.711 222.171 894.105 222.497C893.507 222.816 892.768 222.976 891.889 222.976ZM902.709 222.976C901.752 222.976 900.919 222.754 900.209 222.311C899.499 221.862 898.949 221.24 898.559 220.446C898.168 219.652 897.973 218.734 897.973 217.692V217.282C897.973 216.28 898.161 215.381 898.539 214.587C898.917 213.793 899.46 213.164 900.17 212.702C900.88 212.24 901.726 212.009 902.709 212.009C903.562 212.009 904.307 212.149 904.945 212.429C905.59 212.709 906.13 213.093 906.566 213.581L906.615 216.12H905.111L904.779 214.274C904.558 214.046 904.281 213.864 903.949 213.727C903.617 213.591 903.227 213.522 902.777 213.522C902.204 213.522 901.7 213.692 901.264 214.03C900.834 214.369 900.499 214.821 900.258 215.388C900.017 215.954 899.896 216.586 899.896 217.282V217.692C899.896 218.851 900.147 219.772 900.648 220.456C901.15 221.133 901.833 221.472 902.699 221.472C903.35 221.472 903.891 221.293 904.32 220.935C904.75 220.576 905.014 220.085 905.111 219.46H906.84L906.859 219.518C906.827 220.124 906.648 220.69 906.322 221.218C905.997 221.745 905.531 222.171 904.926 222.497C904.327 222.816 903.588 222.976 902.709 222.976ZM913.432 222.976C912.455 222.976 911.605 222.754 910.883 222.311C910.16 221.862 909.6 221.24 909.203 220.446C908.813 219.652 908.617 218.734 908.617 217.692V217.263C908.617 216.26 908.822 215.365 909.232 214.577C909.649 213.783 910.199 213.158 910.883 212.702C911.573 212.24 912.325 212.009 913.139 212.009C914.558 212.009 915.632 212.438 916.361 213.298C917.097 214.157 917.465 215.303 917.465 216.735V217.936H910.609L910.58 217.985C910.6 219.001 910.857 219.838 911.352 220.495C911.846 221.146 912.54 221.472 913.432 221.472C914.083 221.472 914.652 221.38 915.141 221.198C915.635 221.009 916.062 220.752 916.42 220.427L917.172 221.677C916.794 222.041 916.293 222.351 915.668 222.604C915.049 222.852 914.304 222.976 913.432 222.976ZM910.668 216.433H915.541V216.179C915.541 215.423 915.339 214.792 914.936 214.284C914.532 213.776 913.933 213.522 913.139 213.522C912.494 213.522 911.944 213.796 911.488 214.343C911.033 214.883 910.753 215.563 910.648 216.384L910.668 216.433ZM923.305 222.976C922.595 222.976 921.931 222.904 921.313 222.761C920.694 222.617 920.036 222.396 919.34 222.097L919.32 219.587H920.775L921.137 221.101C921.827 221.387 922.549 221.53 923.305 221.53C924.086 221.53 924.646 221.38 924.984 221.081C925.323 220.782 925.492 220.41 925.492 219.968C925.492 219.551 925.32 219.199 924.975 218.913C924.636 218.62 924.018 218.373 923.119 218.171C921.843 217.878 920.902 217.487 920.297 216.999C919.698 216.504 919.398 215.847 919.398 215.026C919.398 214.453 919.564 213.942 919.896 213.493C920.229 213.037 920.691 212.676 921.283 212.409C921.876 212.142 922.566 212.009 923.354 212.009C924.154 212.009 924.838 212.1 925.404 212.282C925.977 212.464 926.475 212.709 926.898 213.015L926.996 215.427H925.551L925.238 214.02C925.01 213.851 924.74 213.721 924.428 213.63C924.115 213.539 923.757 213.493 923.354 213.493C922.755 213.493 922.266 213.633 921.889 213.913C921.518 214.193 921.332 214.545 921.332 214.968C921.332 215.215 921.384 215.43 921.488 215.612C921.599 215.795 921.807 215.961 922.113 216.11C922.419 216.254 922.869 216.397 923.461 216.54C924.932 216.885 925.958 217.324 926.537 217.858C927.123 218.392 927.416 219.05 927.416 219.831C927.416 220.723 927.084 221.472 926.42 222.077C925.762 222.676 924.724 222.976 923.305 222.976ZM933.285 222.976C932.576 222.976 931.911 222.904 931.293 222.761C930.674 222.617 930.017 222.396 929.32 222.097L929.301 219.587H930.756L931.117 221.101C931.807 221.387 932.53 221.53 933.285 221.53C934.066 221.53 934.626 221.38 934.965 221.081C935.303 220.782 935.473 220.41 935.473 219.968C935.473 219.551 935.3 219.199 934.955 218.913C934.617 218.62 933.998 218.373 933.1 218.171C931.824 217.878 930.883 217.487 930.277 216.999C929.678 216.504 929.379 215.847 929.379 215.026C929.379 214.453 929.545 213.942 929.877 213.493C930.209 213.037 930.671 212.676 931.264 212.409C931.856 212.142 932.546 212.009 933.334 212.009C934.135 212.009 934.818 212.1 935.385 212.282C935.958 212.464 936.456 212.709 936.879 213.015L936.977 215.427H935.531L935.219 214.02C934.991 213.851 934.721 213.721 934.408 213.63C934.096 213.539 933.738 213.493 933.334 213.493C932.735 213.493 932.247 213.633 931.869 213.913C931.498 214.193 931.313 214.545 931.313 214.968C931.313 215.215 931.365 215.43 931.469 215.612C931.579 215.795 931.788 215.961 932.094 216.11C932.4 216.254 932.849 216.397 933.441 216.54C934.913 216.885 935.938 217.324 936.518 217.858C937.104 218.392 937.396 219.05 937.396 219.831C937.396 220.723 937.064 221.472 936.4 222.077C935.743 222.676 934.704 222.976 933.285 222.976Z" fill="black"/>
<path d="M42.9886 112.427C42.279 112.427 41.6149 112.355 40.9964 112.212C40.3779 112.069 39.7204 111.848 39.0238 111.548L39.0042 109.038H40.4593L40.8207 110.552C41.5108 110.838 42.2334 110.982 42.9886 110.982C43.7699 110.982 44.3298 110.832 44.6683 110.532C45.0069 110.233 45.1761 109.862 45.1761 109.419C45.1761 109.002 45.0036 108.651 44.6585 108.364C44.32 108.071 43.7015 107.824 42.8031 107.622C41.527 107.329 40.5863 106.939 39.9808 106.45C39.3819 105.956 39.0824 105.298 39.0824 104.478C39.0824 103.905 39.2484 103.394 39.5804 102.945C39.9125 102.489 40.3747 102.127 40.9671 101.861C41.5596 101.594 42.2497 101.46 43.0375 101.46C43.8382 101.46 44.5218 101.551 45.0882 101.734C45.6612 101.916 46.1592 102.16 46.5824 102.466L46.68 104.878H45.2347L44.9222 103.472C44.6944 103.303 44.4242 103.172 44.1117 103.081C43.7992 102.99 43.4411 102.945 43.0375 102.945C42.4385 102.945 41.9502 103.084 41.5726 103.364C41.2015 103.644 41.016 103.996 41.016 104.419C41.016 104.667 41.0681 104.881 41.1722 105.064C41.2829 105.246 41.4912 105.412 41.7972 105.562C42.1032 105.705 42.5524 105.848 43.1449 105.991C44.6162 106.336 45.6416 106.776 46.221 107.31C46.807 107.844 47.1 108.501 47.1 109.282C47.1 110.174 46.7679 110.923 46.1039 111.529C45.4463 112.127 44.4079 112.427 42.9886 112.427ZM52.1097 112.427C51.0095 112.427 50.1729 112.16 49.6 111.626C49.027 111.086 48.7406 110.327 48.7406 109.351C48.7406 108.348 49.1507 107.544 49.971 106.939C50.7914 106.327 51.9307 106.021 53.389 106.021H55.2738V104.986C55.2738 104.348 55.0785 103.853 54.6878 103.501C54.3037 103.15 53.7601 102.974 53.057 102.974C52.6143 102.974 52.2302 103.029 51.9046 103.14C51.5791 103.244 51.2829 103.39 51.016 103.579L50.8109 105.054H49.3265V102.632C50.2835 101.851 51.5368 101.46 53.0863 101.46C54.3688 101.46 55.3747 101.766 56.1039 102.378C56.833 102.99 57.1976 103.866 57.1976 105.005V110.093C57.1976 110.23 57.1976 110.363 57.1976 110.493C57.2041 110.624 57.2139 110.754 57.2269 110.884L58.2523 110.991V112.222H55.4886C55.3779 111.688 55.3096 111.203 55.2835 110.767C54.9125 111.242 54.447 111.639 53.8871 111.958C53.3337 112.271 52.7412 112.427 52.1097 112.427ZM52.3929 110.816C53.0309 110.816 53.6136 110.663 54.141 110.357C54.6683 110.051 55.0459 109.683 55.2738 109.253V107.339H53.3207C52.4352 107.339 51.7712 107.551 51.3285 107.974C50.8858 108.397 50.6644 108.869 50.6644 109.39C50.6644 110.34 51.2406 110.816 52.3929 110.816ZM59.7464 112.222V110.991L61.3382 110.718V103.169L59.7464 102.896V101.655H63.0667L63.1937 103.032C63.5322 102.531 63.9684 102.144 64.5023 101.87C65.0362 101.597 65.6546 101.46 66.3578 101.46C67.0609 101.46 67.6631 101.623 68.1644 101.948C68.6722 102.274 69.0531 102.762 69.307 103.413C69.639 102.814 70.0785 102.339 70.6253 101.987C71.1722 101.636 71.8102 101.46 72.5394 101.46C73.6201 101.46 74.473 101.831 75.098 102.573C75.723 103.309 76.0355 104.419 76.0355 105.904V110.718L77.6273 110.991V112.222H72.5101V110.991L74.1019 110.718V105.884C74.1019 104.842 73.9229 104.107 73.5648 103.677C73.2067 103.241 72.6761 103.023 71.973 103.023C71.3024 103.023 70.7621 103.26 70.3519 103.736C69.9483 104.204 69.7139 104.797 69.6488 105.513V110.718L71.2406 110.991V112.222H66.1332V110.991L67.725 110.718V105.884C67.725 104.894 67.5394 104.172 67.1683 103.716C66.8037 103.254 66.2731 103.023 65.5765 103.023C64.9906 103.023 64.5088 103.143 64.1312 103.384C63.7536 103.625 63.4639 103.963 63.2621 104.4V110.718L64.8539 110.991V112.222H59.7464ZM78.7699 116.284V115.044L80.264 114.771V103.169L78.6722 102.896V101.655H81.9144L82.0902 102.945C82.8128 101.955 83.8252 101.46 85.1273 101.46C85.9997 101.46 86.7451 101.698 87.3636 102.173C87.9821 102.642 88.4541 103.303 88.7796 104.155C89.1052 105.002 89.2679 105.995 89.2679 107.134V107.339C89.2679 108.355 89.1019 109.243 88.7699 110.005C88.4444 110.767 87.9756 111.362 87.3636 111.792C86.7516 112.215 86.016 112.427 85.1566 112.427C83.874 112.427 82.8845 111.994 82.1878 111.128V114.771L83.8675 115.044V116.284H78.7699ZM84.5609 110.923C85.4723 110.923 86.1625 110.591 86.6312 109.927C87.1 109.263 87.3343 108.4 87.3343 107.339V107.134C87.3343 105.93 87.1 104.943 86.6312 104.175C86.1625 103.407 85.4658 103.023 84.5414 103.023C83.9945 103.023 83.5257 103.146 83.1351 103.394C82.7445 103.641 82.4287 103.98 82.1878 104.409V109.556C82.4287 109.992 82.7412 110.331 83.1253 110.571C83.516 110.806 83.9945 110.923 84.5609 110.923ZM90.5667 112.222V110.991L92.1585 110.718V98.5012L90.5667 98.2277V96.9875H94.0824V110.718L95.6742 110.991V112.222H90.5667ZM101.67 112.427C100.694 112.427 99.8441 112.206 99.1214 111.763C98.3988 111.314 97.8389 110.692 97.4417 109.898C97.0511 109.103 96.8558 108.185 96.8558 107.144V106.714C96.8558 105.711 97.0609 104.816 97.471 104.029C97.8877 103.234 98.4378 102.609 99.1214 102.154C99.8115 101.691 100.563 101.46 101.377 101.46C102.797 101.46 103.871 101.89 104.6 102.749C105.336 103.609 105.703 104.754 105.703 106.187V107.388H98.848L98.8187 107.437C98.8382 108.452 99.0954 109.289 99.5902 109.946C100.085 110.598 100.778 110.923 101.67 110.923C102.321 110.923 102.891 110.832 103.379 110.65C103.874 110.461 104.3 110.204 104.659 109.878L105.41 111.128C105.033 111.493 104.532 111.802 103.907 112.056C103.288 112.303 102.543 112.427 101.67 112.427ZM98.9066 105.884H103.78V105.63C103.78 104.875 103.578 104.243 103.174 103.736C102.771 103.228 102.172 102.974 101.377 102.974C100.733 102.974 100.183 103.247 99.7269 103.794C99.2712 104.334 98.9912 105.015 98.8871 105.835L98.9066 105.884ZM27.1683 138.222V136.991L28.7601 136.718V129.169L27.1683 128.896V127.655H30.6839V136.718L32.2757 136.991V138.222H27.1683ZM28.6625 125.048V122.987H30.6839V125.048H28.6625ZM33.6039 138.222V136.991L35.1957 136.718V129.169L33.6039 128.896V127.655H36.9144L37.0511 129.228C37.4027 128.668 37.8421 128.235 38.3695 127.929C38.9033 127.616 39.5088 127.46 40.1859 127.46C41.3252 127.46 42.2074 127.795 42.8324 128.466C43.4574 129.13 43.7699 130.159 43.7699 131.552V136.718L45.3617 136.991V138.222H40.2542V136.991L41.846 136.718V131.591C41.846 130.66 41.6605 129.999 41.2894 129.609C40.9248 129.218 40.3649 129.023 39.6097 129.023C39.0563 129.023 38.5648 129.156 38.1351 129.423C37.7119 129.69 37.3734 130.055 37.1195 130.517V136.718L38.7113 136.991V138.222H33.6039ZM46.4359 142.284V141.044L47.93 140.771V129.169L46.3382 128.896V127.655H49.5804L49.7562 128.945C50.4789 127.955 51.4912 127.46 52.7933 127.46C53.6657 127.46 54.4112 127.698 55.0296 128.173C55.6481 128.642 56.1201 129.303 56.4457 130.155C56.7712 131.002 56.9339 131.995 56.9339 133.134V133.339C56.9339 134.355 56.7679 135.243 56.4359 136.005C56.1104 136.767 55.6416 137.362 55.0296 137.792C54.4177 138.215 53.682 138.427 52.8226 138.427C51.5401 138.427 50.5505 137.994 49.8539 137.128V140.771L51.5335 141.044V142.284H46.4359ZM52.2269 136.923C53.1384 136.923 53.8285 136.591 54.2972 135.927C54.766 135.263 55.0003 134.4 55.0003 133.339V133.134C55.0003 131.93 54.766 130.943 54.2972 130.175C53.8285 129.407 53.1319 129.023 52.2074 129.023C51.6605 129.023 51.1917 129.146 50.8011 129.394C50.4105 129.641 50.0947 129.98 49.8539 130.409V135.556C50.0947 135.992 50.4072 136.331 50.7914 136.571C51.182 136.806 51.6605 136.923 52.2269 136.923ZM63.0765 138.427C61.9307 138.427 61.0355 138.059 60.391 137.323C59.7464 136.588 59.4242 135.442 59.4242 133.886V129.169L58.2132 128.896V127.655H61.348V133.905C61.348 135.032 61.514 135.806 61.846 136.23C62.1781 136.653 62.6957 136.864 63.3988 136.864C64.0824 136.864 64.6455 136.728 65.0882 136.454C65.5375 136.174 65.876 135.78 66.1039 135.273V129.169L64.6878 128.896V127.655H68.0277V136.718L69.2386 136.991V138.222H66.2992L66.1722 136.659C65.8402 137.226 65.4105 137.662 64.8832 137.968C64.3623 138.274 63.7601 138.427 63.0765 138.427ZM74.3265 138.388C73.5453 138.388 72.9235 138.16 72.4613 137.704C72.0056 137.242 71.7777 136.506 71.7777 135.497V129.081H70.1078V127.655H71.7777V125.107H73.7015V127.655H75.9964V129.081H73.7015V135.497C73.7015 136.005 73.8024 136.379 74.0042 136.62C74.2061 136.861 74.4763 136.982 74.8148 136.982C75.0427 136.982 75.2966 136.962 75.5765 136.923C75.8565 136.877 76.0746 136.838 76.2308 136.806L76.4945 138.066C76.2145 138.15 75.8695 138.225 75.4593 138.29C75.0557 138.355 74.6781 138.388 74.3265 138.388ZM86.1234 138.427C85.0231 138.427 84.1865 138.16 83.6136 137.626C83.0407 137.086 82.7542 136.327 82.7542 135.351C82.7542 134.348 83.1644 133.544 83.9847 132.939C84.805 132.327 85.9444 132.021 87.4027 132.021H89.2875V130.986C89.2875 130.348 89.0921 129.853 88.7015 129.501C88.3174 129.15 87.7738 128.974 87.0707 128.974C86.6279 128.974 86.2438 129.029 85.9183 129.14C85.5928 129.244 85.2966 129.39 85.0296 129.579L84.8246 131.054H83.3402V128.632C84.2972 127.851 85.5505 127.46 87.1 127.46C88.3825 127.46 89.3884 127.766 90.1175 128.378C90.8467 128.99 91.2113 129.866 91.2113 131.005V136.093C91.2113 136.23 91.2113 136.363 91.2113 136.493C91.2178 136.624 91.2276 136.754 91.2406 136.884L92.266 136.991V138.222H89.5023C89.3916 137.688 89.3233 137.203 89.2972 136.767C88.9261 137.242 88.4606 137.639 87.9007 137.958C87.3473 138.271 86.7549 138.427 86.1234 138.427ZM86.4066 136.816C87.0446 136.816 87.6273 136.663 88.1546 136.357C88.682 136.051 89.0596 135.683 89.2875 135.253V133.339H87.3343C86.4489 133.339 85.7848 133.551 85.3421 133.974C84.8994 134.397 84.6781 134.869 84.6781 135.39C84.6781 136.34 85.2542 136.816 86.4066 136.816ZM93.7601 138.222V136.991L95.3519 136.718V129.169L93.7601 128.896V127.655H97.0707L97.2074 129.228C97.5589 128.668 97.9984 128.235 98.5257 127.929C99.0596 127.616 99.6651 127.46 100.342 127.46C101.481 127.46 102.364 127.795 102.989 128.466C103.614 129.13 103.926 130.159 103.926 131.552V136.718L105.518 136.991V138.222H100.41V136.991L102.002 136.718V131.591C102.002 130.66 101.817 129.999 101.446 129.609C101.081 129.218 100.521 129.023 99.766 129.023C99.2126 129.023 98.721 129.156 98.2914 129.423C97.8682 129.69 97.5296 130.055 97.2757 130.517V136.718L98.8675 136.991V138.222H93.7601ZM110.938 138.427C110.078 138.427 109.34 138.215 108.721 137.792C108.109 137.362 107.64 136.767 107.315 136.005C106.989 135.243 106.827 134.355 106.827 133.339V133.134C106.827 132.001 106.989 131.008 107.315 130.155C107.64 129.303 108.112 128.642 108.731 128.173C109.349 127.698 110.091 127.46 110.957 127.46C111.582 127.46 112.133 127.577 112.608 127.812C113.09 128.04 113.5 128.372 113.838 128.808V124.501L112.246 124.228V122.987H115.762V136.718L117.354 136.991V138.222H114.092L113.936 136.962C113.233 137.939 112.233 138.427 110.938 138.427ZM111.426 136.864C111.999 136.864 112.481 136.734 112.871 136.474C113.262 136.213 113.584 135.846 113.838 135.37V130.468C113.591 130.025 113.269 129.674 112.871 129.413C112.474 129.153 111.999 129.023 111.446 129.023C110.528 129.023 109.847 129.404 109.405 130.165C108.968 130.927 108.75 131.917 108.75 133.134V133.339C108.75 134.4 108.968 135.253 109.405 135.898C109.841 136.542 110.515 136.864 111.426 136.864ZM30.7621 164.427C29.9027 164.427 29.1638 164.215 28.5453 163.792C27.9333 163.362 27.4645 162.767 27.139 162.005C26.8135 161.243 26.6507 160.355 26.6507 159.339V159.134C26.6507 158.001 26.8135 157.008 27.139 156.155C27.4645 155.303 27.9365 154.642 28.555 154.173C29.1735 153.698 29.9157 153.46 30.7816 153.46C31.4066 153.46 31.9567 153.577 32.432 153.812C32.9138 154.04 33.3239 154.372 33.6625 154.808V150.501L32.0707 150.228V148.987H35.5863V162.718L37.1781 162.991V164.222H33.9164L33.7601 162.962C33.057 163.939 32.0576 164.427 30.7621 164.427ZM31.2503 162.864C31.8233 162.864 32.305 162.734 32.6957 162.474C33.0863 162.213 33.4085 161.846 33.6625 161.37V156.468C33.4151 156.025 33.0928 155.674 32.6957 155.413C32.2985 155.153 31.8233 155.023 31.2699 155.023C30.3519 155.023 29.6716 155.404 29.2289 156.165C28.7927 156.927 28.5746 157.917 28.5746 159.134V159.339C28.5746 160.4 28.7927 161.253 29.2289 161.898C29.6651 162.542 30.3389 162.864 31.2503 162.864ZM43.2621 164.427C42.2855 164.427 41.4359 164.206 40.7132 163.763C39.9906 163.314 39.4307 162.692 39.0335 161.898C38.6429 161.103 38.4476 160.185 38.4476 159.144V158.714C38.4476 157.711 38.6527 156.816 39.0628 156.029C39.4795 155.234 40.0296 154.609 40.7132 154.154C41.4033 153.691 42.1553 153.46 42.9691 153.46C44.3884 153.46 45.4626 153.89 46.1917 154.749C46.9274 155.609 47.2953 156.754 47.2953 158.187V159.388H40.4398L40.4105 159.437C40.43 160.452 40.6872 161.289 41.182 161.946C41.6768 162.598 42.3701 162.923 43.2621 162.923C43.9131 162.923 44.4828 162.832 44.971 162.65C45.4658 162.461 45.8923 162.204 46.2503 161.878L47.0023 163.128C46.6247 163.493 46.1234 163.802 45.4984 164.056C44.8799 164.303 44.1345 164.427 43.2621 164.427ZM40.4984 157.884H45.3714V157.63C45.3714 156.875 45.1696 156.243 44.766 155.736C44.3623 155.228 43.7634 154.974 42.9691 154.974C42.3246 154.974 41.7744 155.247 41.3187 155.794C40.863 156.334 40.583 157.015 40.4789 157.835L40.4984 157.884ZM52.5296 164.388C51.7484 164.388 51.1266 164.16 50.6644 163.704C50.2087 163.242 49.9808 162.506 49.9808 161.497V155.081H48.3109V153.655H49.9808V151.107H51.9046V153.655H54.1996V155.081H51.9046V161.497C51.9046 162.005 52.0056 162.379 52.2074 162.62C52.4092 162.861 52.6794 162.982 53.0179 162.982C53.2458 162.982 53.4997 162.962 53.7796 162.923C54.0596 162.877 54.2777 162.838 54.4339 162.806L54.6976 164.066C54.4177 164.15 54.0726 164.225 53.6625 164.29C53.2588 164.355 52.8812 164.388 52.5296 164.388ZM60.5472 164.427C59.5707 164.427 58.721 164.206 57.9984 163.763C57.2757 163.314 56.7158 162.692 56.3187 161.898C55.9281 161.103 55.7328 160.185 55.7328 159.144V158.714C55.7328 157.711 55.9378 156.816 56.348 156.029C56.7647 155.234 57.3148 154.609 57.9984 154.154C58.6885 153.691 59.4404 153.46 60.2542 153.46C61.6735 153.46 62.7477 153.89 63.4769 154.749C64.2126 155.609 64.5804 156.754 64.5804 158.187V159.388H57.725L57.6957 159.437C57.7152 160.452 57.9723 161.289 58.4671 161.946C58.9619 162.598 59.6553 162.923 60.5472 162.923C61.1983 162.923 61.7679 162.832 62.2562 162.65C62.751 162.461 63.1774 162.204 63.5355 161.878L64.2875 163.128C63.9098 163.493 63.4085 163.802 62.7835 164.056C62.1651 164.303 61.4196 164.427 60.5472 164.427ZM57.7835 157.884H62.6566V157.63C62.6566 156.875 62.4548 156.243 62.0511 155.736C61.6475 155.228 61.0485 154.974 60.2542 154.974C59.6097 154.974 59.0596 155.247 58.6039 155.794C58.1481 156.334 57.8682 157.015 57.764 157.835L57.7835 157.884ZM71.2503 164.427C70.2933 164.427 69.46 164.206 68.7503 163.763C68.0407 163.314 67.4906 162.692 67.1 161.898C66.7093 161.103 66.514 160.185 66.514 159.144V158.734C66.514 157.731 66.7028 156.833 67.0804 156.038C67.458 155.244 68.0016 154.616 68.7113 154.154C69.4209 153.691 70.2673 153.46 71.2503 153.46C72.1032 153.46 72.8487 153.6 73.4867 153.88C74.1312 154.16 74.6716 154.544 75.1078 155.032L75.1566 157.571H73.6527L73.3207 155.726C73.0993 155.498 72.8226 155.316 72.4906 155.179C72.1585 155.042 71.7679 154.974 71.3187 154.974C70.7458 154.974 70.2412 155.143 69.805 155.482C69.3753 155.82 69.0401 156.273 68.7992 156.839C68.5583 157.405 68.4378 158.037 68.4378 158.734V159.144C68.4378 160.303 68.6885 161.224 69.1898 161.907C69.6911 162.584 70.3747 162.923 71.2406 162.923C71.8916 162.923 72.432 162.744 72.8617 162.386C73.2914 162.028 73.555 161.536 73.6527 160.911H75.3812L75.4007 160.97C75.3682 161.575 75.1891 162.142 74.8636 162.669C74.5381 163.196 74.0726 163.623 73.4671 163.948C72.8682 164.267 72.1292 164.427 71.2503 164.427ZM80.6351 164.388C79.8539 164.388 79.2321 164.16 78.7699 163.704C78.3141 163.242 78.0863 162.506 78.0863 161.497V155.081H76.4164V153.655H78.0863V151.107H80.0101V153.655H82.305V155.081H80.0101V161.497C80.0101 162.005 80.111 162.379 80.3128 162.62C80.5147 162.861 80.7848 162.982 81.1234 162.982C81.3513 162.982 81.6052 162.962 81.8851 162.923C82.1651 162.877 82.3832 162.838 82.5394 162.806L82.8031 164.066C82.5231 164.15 82.1781 164.225 81.7679 164.29C81.3643 164.355 80.9867 164.388 80.6351 164.388ZM93.8285 164.427C92.8519 164.427 92.0023 164.206 91.2796 163.763C90.557 163.314 89.9971 162.692 89.6 161.898C89.2093 161.103 89.014 160.185 89.014 159.144V158.714C89.014 157.711 89.2191 156.816 89.6292 156.029C90.0459 155.234 90.596 154.609 91.2796 154.154C91.9697 153.691 92.7217 153.46 93.5355 153.46C94.9548 153.46 96.029 153.89 96.7582 154.749C97.4938 155.609 97.8617 156.754 97.8617 158.187V159.388H91.0062L90.9769 159.437C90.9964 160.452 91.2536 161.289 91.7484 161.946C92.2432 162.598 92.9365 162.923 93.8285 162.923C94.4795 162.923 95.0492 162.832 95.5375 162.65C96.0322 162.461 96.4587 162.204 96.8167 161.878L97.5687 163.128C97.1911 163.493 96.6898 163.802 96.0648 164.056C95.4463 164.303 94.7009 164.427 93.8285 164.427ZM91.0648 157.884H95.9378V157.63C95.9378 156.875 95.736 156.243 95.3324 155.736C94.9287 155.228 94.3298 154.974 93.5355 154.974C92.891 154.974 92.3408 155.247 91.8851 155.794C91.4294 156.334 91.1494 157.015 91.0453 157.835L91.0648 157.884ZM99.3656 164.222V162.991L100.957 162.718V155.169L99.3656 154.896V153.655H102.676L102.813 155.228C103.164 154.668 103.604 154.235 104.131 153.929C104.665 153.616 105.271 153.46 105.948 153.46C107.087 153.46 107.969 153.795 108.594 154.466C109.219 155.13 109.532 156.159 109.532 157.552V162.718L111.123 162.991V164.222H106.016V162.991L107.608 162.718V157.591C107.608 156.66 107.422 155.999 107.051 155.609C106.687 155.218 106.127 155.023 105.371 155.023C104.818 155.023 104.327 155.156 103.897 155.423C103.474 155.69 103.135 156.055 102.881 156.517V162.718L104.473 162.991V164.222H99.3656ZM116.543 164.427C115.684 164.427 114.945 164.215 114.327 163.792C113.715 163.362 113.246 162.767 112.92 162.005C112.595 161.243 112.432 160.355 112.432 159.339V159.134C112.432 158.001 112.595 157.008 112.92 156.155C113.246 155.303 113.718 154.642 114.336 154.173C114.955 153.698 115.697 153.46 116.563 153.46C117.188 153.46 117.738 153.577 118.213 153.812C118.695 154.04 119.105 154.372 119.444 154.808V150.501L117.852 150.228V148.987H121.368V162.718L122.959 162.991V164.222H119.698L119.541 162.962C118.838 163.939 117.839 164.427 116.543 164.427ZM117.032 162.864C117.605 162.864 118.086 162.734 118.477 162.474C118.868 162.213 119.19 161.846 119.444 161.37V156.468C119.196 156.025 118.874 155.674 118.477 155.413C118.08 155.153 117.605 155.023 117.051 155.023C116.133 155.023 115.453 155.404 115.01 156.165C114.574 156.927 114.356 157.917 114.356 159.134V159.339C114.356 160.4 114.574 161.253 115.01 161.898C115.446 162.542 116.12 162.864 117.032 162.864Z" fill="black"/>
<path d="M286.447 112.222V110.991L288.039 110.718V103.169L286.447 102.896V101.655H289.758L289.924 103.003L289.943 103.189C290.243 102.648 290.61 102.225 291.047 101.919C291.489 101.613 291.994 101.46 292.56 101.46C292.762 101.46 292.967 101.48 293.176 101.519C293.39 101.551 293.543 101.584 293.635 101.616L293.381 103.404L292.043 103.325C291.535 103.293 291.109 103.41 290.763 103.677C290.418 103.937 290.151 104.289 289.963 104.732V110.718L291.554 110.991V112.222H286.447ZM299.426 112.427C298.449 112.427 297.599 112.206 296.877 111.763C296.154 111.314 295.594 110.692 295.197 109.898C294.806 109.103 294.611 108.185 294.611 107.144V106.714C294.611 105.711 294.816 104.816 295.226 104.029C295.643 103.234 296.193 102.609 296.877 102.154C297.567 101.691 298.319 101.46 299.133 101.46C300.552 101.46 301.626 101.89 302.355 102.749C303.091 103.609 303.459 104.754 303.459 106.187V107.388H296.603L296.574 107.437C296.594 108.452 296.851 109.289 297.346 109.946C297.84 110.598 298.534 110.923 299.426 110.923C300.077 110.923 300.646 110.832 301.135 110.65C301.629 110.461 302.056 110.204 302.414 109.878L303.166 111.128C302.788 111.493 302.287 111.802 301.662 112.056C301.043 112.303 300.298 112.427 299.426 112.427ZM296.662 105.884H301.535V105.63C301.535 104.875 301.333 104.243 300.929 103.736C300.526 103.228 299.927 102.974 299.133 102.974C298.488 102.974 297.938 103.247 297.482 103.794C297.026 104.334 296.747 105.015 296.642 105.835L296.662 105.884ZM304.67 116.284V115.044L306.164 114.771V103.169L304.572 102.896V101.655H307.814L307.99 102.945C308.713 101.955 309.725 101.46 311.027 101.46C311.9 101.46 312.645 101.698 313.263 102.173C313.882 102.642 314.354 103.303 314.679 104.155C315.005 105.002 315.168 105.995 315.168 107.134V107.339C315.168 108.355 315.002 109.243 314.67 110.005C314.344 110.767 313.875 111.362 313.263 111.792C312.651 112.215 311.916 112.427 311.056 112.427C309.774 112.427 308.784 111.994 308.088 111.128V114.771L309.767 115.044V116.284H304.67ZM310.461 110.923C311.372 110.923 312.062 110.591 312.531 109.927C313 109.263 313.234 108.4 313.234 107.339V107.134C313.234 105.93 313 104.943 312.531 104.175C312.062 103.407 311.366 103.023 310.441 103.023C309.894 103.023 309.426 103.146 309.035 103.394C308.644 103.641 308.329 103.98 308.088 104.409V109.556C308.329 109.992 308.641 110.331 309.025 110.571C309.416 110.806 309.894 110.923 310.461 110.923ZM316.642 112.222V110.991L318.234 110.718V103.169L316.642 102.896V101.655H319.953L320.119 103.003L320.138 103.189C320.438 102.648 320.806 102.225 321.242 101.919C321.685 101.613 322.189 101.46 322.756 101.46C322.957 101.46 323.163 101.48 323.371 101.519C323.586 101.551 323.739 101.584 323.83 101.616L323.576 103.404L322.238 103.325C321.73 103.293 321.304 103.41 320.959 103.677C320.614 103.937 320.347 104.289 320.158 104.732V110.718L321.75 110.991V112.222H316.642ZM329.621 112.427C328.644 112.427 327.795 112.206 327.072 111.763C326.349 111.314 325.79 110.692 325.392 109.898C325.002 109.103 324.806 108.185 324.806 107.144V106.714C324.806 105.711 325.012 104.816 325.422 104.029C325.838 103.234 326.388 102.609 327.072 102.154C327.762 101.691 328.514 101.46 329.328 101.46C330.747 101.46 331.821 101.89 332.551 102.749C333.286 103.609 333.654 104.754 333.654 106.187V107.388H326.799L326.769 107.437C326.789 108.452 327.046 109.289 327.541 109.946C328.036 110.598 328.729 110.923 329.621 110.923C330.272 110.923 330.842 110.832 331.33 110.65C331.825 110.461 332.251 110.204 332.609 109.878L333.361 111.128C332.984 111.493 332.482 111.802 331.857 112.056C331.239 112.303 330.493 112.427 329.621 112.427ZM326.857 105.884H331.73V105.63C331.73 104.875 331.528 104.243 331.125 103.736C330.721 103.228 330.122 102.974 329.328 102.974C328.683 102.974 328.133 103.247 327.678 103.794C327.222 104.334 326.942 105.015 326.838 105.835L326.857 105.884ZM339.494 112.427C338.784 112.427 338.12 112.355 337.502 112.212C336.883 112.069 336.226 111.848 335.529 111.548L335.51 109.038H336.965L337.326 110.552C338.016 110.838 338.739 110.982 339.494 110.982C340.275 110.982 340.835 110.832 341.174 110.532C341.512 110.233 341.681 109.862 341.681 109.419C341.681 109.002 341.509 108.651 341.164 108.364C340.825 108.071 340.207 107.824 339.308 107.622C338.032 107.329 337.092 106.939 336.486 106.45C335.887 105.956 335.588 105.298 335.588 104.478C335.588 103.905 335.754 103.394 336.086 102.945C336.418 102.489 336.88 102.127 337.472 101.861C338.065 101.594 338.755 101.46 339.543 101.46C340.344 101.46 341.027 101.551 341.594 101.734C342.166 101.916 342.665 102.16 343.088 102.466L343.185 104.878H341.74L341.428 103.472C341.2 103.303 340.929 103.172 340.617 103.081C340.304 102.99 339.946 102.945 339.543 102.945C338.944 102.945 338.456 103.084 338.078 103.364C337.707 103.644 337.521 103.996 337.521 104.419C337.521 104.667 337.573 104.881 337.678 105.064C337.788 105.246 337.997 105.412 338.303 105.562C338.609 105.705 339.058 105.848 339.65 105.991C341.122 106.336 342.147 106.776 342.726 107.31C343.312 107.844 343.605 108.501 343.605 109.282C343.605 110.174 343.273 110.923 342.609 111.529C341.952 112.127 340.913 112.427 339.494 112.427ZM350.012 112.427C349.035 112.427 348.185 112.206 347.463 111.763C346.74 111.314 346.18 110.692 345.783 109.898C345.392 109.103 345.197 108.185 345.197 107.144V106.714C345.197 105.711 345.402 104.816 345.812 104.029C346.229 103.234 346.779 102.609 347.463 102.154C348.153 101.691 348.905 101.46 349.719 101.46C351.138 101.46 352.212 101.89 352.941 102.749C353.677 103.609 354.045 104.754 354.045 106.187V107.388H347.189L347.16 107.437C347.179 108.452 347.437 109.289 347.931 109.946C348.426 110.598 349.12 110.923 350.012 110.923C350.663 110.923 351.232 110.832 351.721 110.65C352.215 110.461 352.642 110.204 353 109.878L353.752 111.128C353.374 111.493 352.873 111.802 352.248 112.056C351.629 112.303 350.884 112.427 350.012 112.427ZM347.248 105.884H352.121V105.63C352.121 104.875 351.919 104.243 351.515 103.736C351.112 103.228 350.513 102.974 349.719 102.974C349.074 102.974 348.524 103.247 348.068 103.794C347.612 104.334 347.332 105.015 347.228 105.835L347.248 105.884ZM355.549 112.222V110.991L357.14 110.718V103.169L355.549 102.896V101.655H358.859L358.996 103.228C359.347 102.668 359.787 102.235 360.314 101.929C360.848 101.616 361.454 101.46 362.131 101.46C363.27 101.46 364.152 101.795 364.777 102.466C365.402 103.13 365.715 104.159 365.715 105.552V110.718L367.306 110.991V112.222H362.199V110.991L363.791 110.718V105.591C363.791 104.66 363.605 103.999 363.234 103.609C362.87 103.218 362.31 103.023 361.554 103.023C361.001 103.023 360.51 103.156 360.08 103.423C359.657 103.69 359.318 104.055 359.064 104.517V110.718L360.656 110.991V112.222H355.549ZM372.013 112.388C371.232 112.388 370.61 112.16 370.148 111.704C369.693 111.242 369.465 110.506 369.465 109.497V103.081H367.795V101.655H369.465V99.1066H371.388V101.655H373.683V103.081H371.388V109.497C371.388 110.005 371.489 110.379 371.691 110.62C371.893 110.861 372.163 110.982 372.502 110.982C372.73 110.982 372.984 110.962 373.263 110.923C373.543 110.877 373.762 110.838 373.918 110.806L374.181 112.066C373.901 112.15 373.556 112.225 373.146 112.29C372.743 112.355 372.365 112.388 372.013 112.388ZM267.365 138.222V136.991L268.957 136.718V129.169L267.365 128.896V127.655H270.881V136.718L272.472 136.991V138.222H267.365ZM268.859 125.048V122.987H270.881V125.048H268.859ZM273.801 138.222V136.991L275.392 136.718V129.169L273.801 128.896V127.655H277.111L277.248 129.228C277.599 128.668 278.039 128.235 278.566 127.929C279.1 127.616 279.706 127.46 280.383 127.46C281.522 127.46 282.404 127.795 283.029 128.466C283.654 129.13 283.967 130.159 283.967 131.552V136.718L285.558 136.991V138.222H280.451V136.991L282.043 136.718V131.591C282.043 130.66 281.857 129.999 281.486 129.609C281.122 129.218 280.562 129.023 279.806 129.023C279.253 129.023 278.762 129.156 278.332 129.423C277.909 129.69 277.57 130.055 277.316 130.517V136.718L278.908 136.991V138.222H273.801ZM286.633 142.284V141.044L288.127 140.771V129.169L286.535 128.896V127.655H289.777L289.953 128.945C290.676 127.955 291.688 127.46 292.99 127.46C293.862 127.46 294.608 127.698 295.226 128.173C295.845 128.642 296.317 129.303 296.642 130.155C296.968 131.002 297.131 131.995 297.131 133.134V133.339C297.131 134.355 296.965 135.243 296.633 136.005C296.307 136.767 295.838 137.362 295.226 137.792C294.614 138.215 293.879 138.427 293.019 138.427C291.737 138.427 290.747 137.994 290.051 137.128V140.771L291.73 141.044V142.284H286.633ZM292.424 136.923C293.335 136.923 294.025 136.591 294.494 135.927C294.963 135.263 295.197 134.4 295.197 133.339V133.134C295.197 131.93 294.963 130.943 294.494 130.175C294.025 129.407 293.329 129.023 292.404 129.023C291.857 129.023 291.388 129.146 290.998 129.394C290.607 129.641 290.291 129.98 290.051 130.409V135.556C290.291 135.992 290.604 136.331 290.988 136.571C291.379 136.806 291.857 136.923 292.424 136.923ZM303.273 138.427C302.127 138.427 301.232 138.059 300.588 137.323C299.943 136.588 299.621 135.442 299.621 133.886V129.169L298.41 128.896V127.655H301.545V133.905C301.545 135.032 301.711 135.806 302.043 136.23C302.375 136.653 302.892 136.864 303.596 136.864C304.279 136.864 304.842 136.728 305.285 136.454C305.734 136.174 306.073 135.78 306.301 135.273V129.169L304.885 128.896V127.655H308.224V136.718L309.435 136.991V138.222H306.496L306.369 136.659C306.037 137.226 305.607 137.662 305.08 137.968C304.559 138.274 303.957 138.427 303.273 138.427ZM314.523 138.388C313.742 138.388 313.12 138.16 312.658 137.704C312.202 137.242 311.974 136.506 311.974 135.497V129.081H310.304V127.655H311.974V125.107H313.898V127.655H316.193V129.081H313.898V135.497C313.898 136.005 313.999 136.379 314.201 136.62C314.403 136.861 314.673 136.982 315.012 136.982C315.239 136.982 315.493 136.962 315.773 136.923C316.053 136.877 316.271 136.838 316.428 136.806L316.691 138.066C316.411 138.15 316.066 138.225 315.656 138.29C315.252 138.355 314.875 138.388 314.523 138.388ZM322.883 138.222V136.991L324.474 136.718V129.169L322.883 128.896V127.655H326.193L326.359 129.003L326.379 129.189C326.678 128.648 327.046 128.225 327.482 127.919C327.925 127.613 328.429 127.46 328.996 127.46C329.198 127.46 329.403 127.48 329.611 127.519C329.826 127.551 329.979 127.584 330.07 127.616L329.816 129.404L328.478 129.325C327.971 129.293 327.544 129.41 327.199 129.677C326.854 129.937 326.587 130.289 326.398 130.732V136.718L327.99 136.991V138.222H322.883ZM330.803 138.222V136.991L332.394 136.718V124.501L330.803 124.228V122.987H334.318V129.062C334.683 128.554 335.129 128.16 335.656 127.88C336.183 127.6 336.769 127.46 337.414 127.46C338.547 127.46 339.426 127.799 340.051 128.476C340.676 129.153 340.988 130.195 340.988 131.601V136.718L342.58 136.991V138.222H337.472V136.991L339.064 136.718V131.581C339.064 129.876 338.319 129.023 336.828 129.023C336.301 129.023 335.819 129.15 335.383 129.404C334.953 129.651 334.598 129.989 334.318 130.419V136.718L335.91 136.991V138.222H330.803ZM345.314 142.489C345.165 142.489 344.969 142.47 344.728 142.431C344.487 142.398 344.302 142.366 344.172 142.333L344.367 140.82C344.478 140.833 344.631 140.842 344.826 140.849C345.021 140.862 345.155 140.868 345.226 140.868C345.637 140.868 345.969 140.712 346.222 140.4C346.483 140.087 346.724 139.661 346.945 139.12L347.404 138.007L343.664 129.052L342.531 128.896V127.655H346.965V128.896L345.685 129.091L347.746 134.374L348.244 135.751H348.303L350.744 129.091L349.396 128.896V127.655H353.742V128.896L352.648 129.052L348.488 139.843C348.195 140.611 347.804 141.243 347.316 141.737C346.828 142.239 346.161 142.489 345.314 142.489ZM358.879 138.388C358.097 138.388 357.476 138.16 357.013 137.704C356.558 137.242 356.33 136.506 356.33 135.497V129.081H354.66V127.655H356.33V125.107H358.254V127.655H360.549V129.081H358.254V135.497C358.254 136.005 358.355 136.379 358.556 136.62C358.758 136.861 359.028 136.982 359.367 136.982C359.595 136.982 359.849 136.962 360.129 136.923C360.409 136.877 360.627 136.838 360.783 136.806L361.047 138.066C360.767 138.15 360.422 138.225 360.012 138.29C359.608 138.355 359.23 138.388 358.879 138.388ZM362.033 138.222V136.991L363.625 136.718V124.501L362.033 124.228V122.987H365.549V129.062C365.913 128.554 366.359 128.16 366.887 127.88C367.414 127.6 368 127.46 368.644 127.46C369.777 127.46 370.656 127.799 371.281 128.476C371.906 129.153 372.219 130.195 372.219 131.601V136.718L373.81 136.991V138.222H368.703V136.991L370.295 136.718V131.581C370.295 129.876 369.549 129.023 368.058 129.023C367.531 129.023 367.049 129.15 366.613 129.404C366.183 129.651 365.829 129.989 365.549 130.419V136.718L367.14 136.991V138.222H362.033ZM375.129 138.222V136.991L376.721 136.718V129.169L375.129 128.896V127.655H378.449L378.576 129.032C378.915 128.531 379.351 128.144 379.885 127.87C380.418 127.597 381.037 127.46 381.74 127.46C382.443 127.46 383.045 127.623 383.547 127.948C384.054 128.274 384.435 128.762 384.689 129.413C385.021 128.814 385.461 128.339 386.008 127.987C386.554 127.636 387.193 127.46 387.922 127.46C389.002 127.46 389.855 127.831 390.48 128.573C391.105 129.309 391.418 130.419 391.418 131.904V136.718L393.01 136.991V138.222H387.892V136.991L389.484 136.718V131.884C389.484 130.842 389.305 130.107 388.947 129.677C388.589 129.241 388.058 129.023 387.355 129.023C386.685 129.023 386.144 129.26 385.734 129.736C385.331 130.204 385.096 130.797 385.031 131.513V136.718L386.623 136.991V138.222H381.515V136.991L383.107 136.718V131.884C383.107 130.894 382.922 130.172 382.551 129.716C382.186 129.254 381.655 129.023 380.959 129.023C380.373 129.023 379.891 129.143 379.513 129.384C379.136 129.625 378.846 129.963 378.644 130.4V136.718L380.236 136.991V138.222H375.129ZM291.877 164.427C290.776 164.427 289.94 164.16 289.367 163.626C288.794 163.086 288.508 162.327 288.508 161.351C288.508 160.348 288.918 159.544 289.738 158.939C290.558 158.327 291.698 158.021 293.156 158.021H295.041V156.986C295.041 156.348 294.846 155.853 294.455 155.501C294.071 155.15 293.527 154.974 292.824 154.974C292.381 154.974 291.997 155.029 291.672 155.14C291.346 155.244 291.05 155.39 290.783 155.579L290.578 157.054H289.094V154.632C290.051 153.851 291.304 153.46 292.853 153.46C294.136 153.46 295.142 153.766 295.871 154.378C296.6 154.99 296.965 155.866 296.965 157.005V162.093C296.965 162.23 296.965 162.363 296.965 162.493C296.971 162.624 296.981 162.754 296.994 162.884L298.019 162.991V164.222H295.256C295.145 163.688 295.077 163.203 295.051 162.767C294.679 163.242 294.214 163.639 293.654 163.958C293.101 164.271 292.508 164.427 291.877 164.427ZM292.16 162.816C292.798 162.816 293.381 162.663 293.908 162.357C294.435 162.051 294.813 161.683 295.041 161.253V159.339H293.088C292.202 159.339 291.538 159.551 291.096 159.974C290.653 160.397 290.431 160.869 290.431 161.39C290.431 162.34 291.008 162.816 292.16 162.816ZM303.791 164.427C303.081 164.427 302.417 164.355 301.799 164.212C301.18 164.069 300.523 163.848 299.826 163.548L299.806 161.038H301.262L301.623 162.552C302.313 162.838 303.036 162.982 303.791 162.982C304.572 162.982 305.132 162.832 305.471 162.532C305.809 162.233 305.978 161.862 305.978 161.419C305.978 161.002 305.806 160.651 305.461 160.364C305.122 160.071 304.504 159.824 303.605 159.622C302.329 159.329 301.388 158.939 300.783 158.45C300.184 157.956 299.885 157.298 299.885 156.478C299.885 155.905 300.051 155.394 300.383 154.945C300.715 154.489 301.177 154.127 301.769 153.861C302.362 153.594 303.052 153.46 303.84 153.46C304.64 153.46 305.324 153.551 305.89 153.734C306.463 153.916 306.961 154.16 307.385 154.466L307.482 156.878H306.037L305.724 155.472C305.497 155.303 305.226 155.172 304.914 155.081C304.601 154.99 304.243 154.945 303.84 154.945C303.241 154.945 302.752 155.084 302.375 155.364C302.004 155.644 301.818 155.996 301.818 156.419C301.818 156.667 301.87 156.881 301.974 157.064C302.085 157.246 302.293 157.412 302.599 157.562C302.905 157.705 303.355 157.848 303.947 157.991C305.418 158.336 306.444 158.776 307.023 159.31C307.609 159.844 307.902 160.501 307.902 161.282C307.902 162.174 307.57 162.923 306.906 163.529C306.248 164.127 305.21 164.427 303.791 164.427ZM318.859 164.222L315.099 155.042L314.006 154.896V153.655H318.439V154.896L317.062 155.091L319.406 161.107L319.679 161.956H319.738L320.051 161.107L322.228 155.091L320.812 154.896V153.655H325.236V154.896L324.123 155.042L320.549 164.222H318.859ZM330.812 164.427C329.836 164.427 328.986 164.206 328.263 163.763C327.541 163.314 326.981 162.692 326.584 161.898C326.193 161.103 325.998 160.185 325.998 159.144V158.714C325.998 157.711 326.203 156.816 326.613 156.029C327.03 155.234 327.58 154.609 328.263 154.154C328.954 153.691 329.706 153.46 330.519 153.46C331.939 153.46 333.013 153.89 333.742 154.749C334.478 155.609 334.846 156.754 334.846 158.187V159.388H327.99L327.961 159.437C327.98 160.452 328.237 161.289 328.732 161.946C329.227 162.598 329.92 162.923 330.812 162.923C331.463 162.923 332.033 162.832 332.521 162.65C333.016 162.461 333.443 162.204 333.801 161.878L334.553 163.128C334.175 163.493 333.674 163.802 333.049 164.056C332.43 164.303 331.685 164.427 330.812 164.427ZM328.049 157.884H332.922V157.63C332.922 156.875 332.72 156.243 332.316 155.736C331.913 155.228 331.314 154.974 330.519 154.974C329.875 154.974 329.325 155.247 328.869 155.794C328.413 156.334 328.133 157.015 328.029 157.835L328.049 157.884ZM341.515 164.427C340.558 164.427 339.725 164.206 339.015 163.763C338.306 163.314 337.756 162.692 337.365 161.898C336.974 161.103 336.779 160.185 336.779 159.144V158.734C336.779 157.731 336.968 156.833 337.346 156.038C337.723 155.244 338.267 154.616 338.976 154.154C339.686 153.691 340.532 153.46 341.515 153.46C342.368 153.46 343.114 153.6 343.752 153.88C344.396 154.16 344.937 154.544 345.373 155.032L345.422 157.571H343.918L343.586 155.726C343.364 155.498 343.088 155.316 342.756 155.179C342.424 155.042 342.033 154.974 341.584 154.974C341.011 154.974 340.506 155.143 340.07 155.482C339.64 155.82 339.305 156.273 339.064 156.839C338.823 157.405 338.703 158.037 338.703 158.734V159.144C338.703 160.303 338.954 161.224 339.455 161.907C339.956 162.584 340.64 162.923 341.506 162.923C342.157 162.923 342.697 162.744 343.127 162.386C343.556 162.028 343.82 161.536 343.918 160.911H345.646L345.666 160.97C345.633 161.575 345.454 162.142 345.129 162.669C344.803 163.196 344.338 163.623 343.732 163.948C343.133 164.267 342.394 164.427 341.515 164.427ZM350.9 164.388C350.119 164.388 349.497 164.16 349.035 163.704C348.579 163.242 348.351 162.506 348.351 161.497V155.081H346.681V153.655H348.351V151.107H350.275V153.655H352.57V155.081H350.275V161.497C350.275 162.005 350.376 162.379 350.578 162.62C350.78 162.861 351.05 162.982 351.388 162.982C351.616 162.982 351.87 162.962 352.15 162.923C352.43 162.877 352.648 162.838 352.804 162.806L353.068 164.066C352.788 164.15 352.443 164.225 352.033 164.29C351.629 164.355 351.252 164.388 350.9 164.388ZM358.879 164.427C357.902 164.427 357.059 164.199 356.349 163.743C355.646 163.281 355.103 162.646 354.719 161.839C354.334 161.025 354.142 160.098 354.142 159.056V158.841C354.142 157.799 354.334 156.875 354.719 156.068C355.103 155.254 355.646 154.616 356.349 154.154C357.059 153.691 357.896 153.46 358.859 153.46C359.836 153.46 360.676 153.691 361.379 154.154C362.088 154.616 362.635 155.251 363.019 156.058C363.403 156.865 363.596 157.793 363.596 158.841V159.056C363.596 160.104 363.403 161.035 363.019 161.849C362.635 162.656 362.092 163.288 361.388 163.743C360.685 164.199 359.849 164.427 358.879 164.427ZM358.879 162.923C359.79 162.923 360.484 162.558 360.959 161.829C361.434 161.1 361.672 160.176 361.672 159.056V158.841C361.672 158.099 361.564 157.438 361.349 156.859C361.141 156.273 360.829 155.814 360.412 155.482C359.995 155.143 359.478 154.974 358.859 154.974C358.247 154.974 357.733 155.143 357.316 155.482C356.9 155.814 356.587 156.273 356.379 156.859C356.17 157.438 356.066 158.099 356.066 158.841V159.056C356.066 160.176 356.301 161.1 356.769 161.829C357.245 162.558 357.948 162.923 358.879 162.923ZM365.06 164.222V162.991L366.652 162.718V155.169L365.06 154.896V153.655H368.371L368.537 155.003L368.556 155.189C368.856 154.648 369.224 154.225 369.66 153.919C370.103 153.613 370.607 153.46 371.174 153.46C371.375 153.46 371.581 153.48 371.789 153.519C372.004 153.551 372.157 153.584 372.248 153.616L371.994 155.404L370.656 155.325C370.148 155.293 369.722 155.41 369.377 155.677C369.032 155.937 368.765 156.289 368.576 156.732V162.718L370.168 162.991V164.222H365.06Z" fill="black"/>
<path d="M549.674 113.2C548.717 113.2 547.884 112.979 547.174 112.536C546.464 112.087 545.914 111.465 545.524 110.671C545.133 109.876 544.938 108.958 544.938 107.917V107.507C544.938 106.504 545.127 105.606 545.504 104.811C545.882 104.017 546.425 103.389 547.135 102.927C547.845 102.464 548.691 102.233 549.674 102.233C550.527 102.233 551.272 102.373 551.91 102.653C552.555 102.933 553.095 103.317 553.532 103.805L553.58 106.345H552.076L551.744 104.499C551.523 104.271 551.246 104.089 550.914 103.952C550.582 103.815 550.192 103.747 549.742 103.747C549.17 103.747 548.665 103.916 548.229 104.255C547.799 104.593 547.464 105.046 547.223 105.612C546.982 106.179 546.862 106.81 546.862 107.507V107.917C546.862 109.076 547.112 109.997 547.614 110.68C548.115 111.358 548.798 111.696 549.664 111.696C550.315 111.696 550.856 111.517 551.285 111.159C551.715 110.801 551.979 110.309 552.076 109.684H553.805L553.824 109.743C553.792 110.348 553.613 110.915 553.287 111.442C552.962 111.97 552.496 112.396 551.891 112.721C551.292 113.041 550.553 113.2 549.674 113.2ZM560.358 113.2C559.381 113.2 558.538 112.972 557.828 112.516C557.125 112.054 556.582 111.419 556.198 110.612C555.813 109.798 555.621 108.871 555.621 107.829V107.614C555.621 106.572 555.813 105.648 556.198 104.841C556.582 104.027 557.125 103.389 557.828 102.927C558.538 102.464 559.375 102.233 560.338 102.233C561.315 102.233 562.155 102.464 562.858 102.927C563.567 103.389 564.114 104.024 564.498 104.831C564.882 105.638 565.074 106.566 565.074 107.614V107.829C565.074 108.877 564.882 109.808 564.498 110.622C564.114 111.429 563.571 112.061 562.867 112.516C562.164 112.972 561.328 113.2 560.358 113.2ZM560.358 111.696C561.269 111.696 561.963 111.332 562.438 110.602C562.913 109.873 563.151 108.949 563.151 107.829V107.614C563.151 106.872 563.043 106.211 562.828 105.632C562.62 105.046 562.308 104.587 561.891 104.255C561.474 103.916 560.957 103.747 560.338 103.747C559.726 103.747 559.212 103.916 558.795 104.255C558.379 104.587 558.066 105.046 557.858 105.632C557.649 106.211 557.545 106.872 557.545 107.614V107.829C557.545 108.949 557.78 109.873 558.248 110.602C558.724 111.332 559.427 111.696 560.358 111.696ZM566.559 112.995V111.764L568.151 111.491V103.942L566.559 103.669V102.429H569.879L570.006 103.805C570.345 103.304 570.781 102.917 571.315 102.643C571.849 102.37 572.467 102.233 573.17 102.233C573.873 102.233 574.476 102.396 574.977 102.721C575.485 103.047 575.866 103.535 576.119 104.186C576.451 103.587 576.891 103.112 577.438 102.761C577.985 102.409 578.623 102.233 579.352 102.233C580.433 102.233 581.285 102.604 581.91 103.346C582.535 104.082 582.848 105.192 582.848 106.677V111.491L584.44 111.764V112.995H579.323V111.764L580.914 111.491V106.657C580.914 105.615 580.735 104.88 580.377 104.45C580.019 104.014 579.489 103.796 578.785 103.796C578.115 103.796 577.574 104.033 577.164 104.509C576.761 104.977 576.526 105.57 576.461 106.286V111.491L578.053 111.764V112.995H572.946V111.764L574.537 111.491V106.657C574.537 105.667 574.352 104.945 573.981 104.489C573.616 104.027 573.086 103.796 572.389 103.796C571.803 103.796 571.321 103.916 570.944 104.157C570.566 104.398 570.276 104.736 570.074 105.173V111.491L571.666 111.764V112.995H566.559ZM585.582 117.057V115.817L587.076 115.544V103.942L585.485 103.669V102.429H588.727L588.903 103.718C589.625 102.728 590.638 102.233 591.94 102.233C592.812 102.233 593.558 102.471 594.176 102.946C594.795 103.415 595.267 104.076 595.592 104.929C595.918 105.775 596.08 106.768 596.08 107.907V108.112C596.08 109.128 595.914 110.016 595.582 110.778C595.257 111.54 594.788 112.136 594.176 112.565C593.564 112.988 592.828 113.2 591.969 113.2C590.686 113.2 589.697 112.767 589 111.901V115.544L590.68 115.817V117.057H585.582ZM591.373 111.696C592.285 111.696 592.975 111.364 593.444 110.7C593.912 110.036 594.147 109.173 594.147 108.112V107.907C594.147 106.703 593.912 105.716 593.444 104.948C592.975 104.18 592.278 103.796 591.354 103.796C590.807 103.796 590.338 103.919 589.948 104.167C589.557 104.414 589.241 104.753 589 105.182V110.329C589.241 110.765 589.554 111.104 589.938 111.345C590.328 111.579 590.807 111.696 591.373 111.696ZM600.992 113.2C599.892 113.2 599.056 112.933 598.483 112.399C597.91 111.859 597.623 111.1 597.623 110.124C597.623 109.121 598.033 108.317 598.854 107.712C599.674 107.1 600.813 106.794 602.272 106.794H604.157V105.759C604.157 105.121 603.961 104.626 603.571 104.274C603.186 103.923 602.643 103.747 601.94 103.747C601.497 103.747 601.113 103.802 600.787 103.913C600.462 104.017 600.166 104.164 599.899 104.352L599.694 105.827H598.209V103.405C599.166 102.624 600.42 102.233 601.969 102.233C603.252 102.233 604.257 102.539 604.987 103.151C605.716 103.763 606.08 104.639 606.08 105.778V110.866C606.08 111.003 606.08 111.136 606.08 111.266C606.087 111.397 606.097 111.527 606.11 111.657L607.135 111.764V112.995H604.371C604.261 112.461 604.192 111.976 604.166 111.54C603.795 112.015 603.33 112.412 602.77 112.731C602.216 113.044 601.624 113.2 600.992 113.2ZM601.276 111.589C601.914 111.589 602.496 111.436 603.024 111.13C603.551 110.824 603.929 110.456 604.157 110.026V108.112H602.203C601.318 108.112 600.654 108.324 600.211 108.747C599.769 109.17 599.547 109.642 599.547 110.163C599.547 111.113 600.123 111.589 601.276 111.589ZM608.61 112.995V111.764L610.201 111.491V103.942L608.61 103.669V102.429H611.92L612.086 103.776L612.106 103.962C612.405 103.421 612.773 102.998 613.209 102.692C613.652 102.386 614.157 102.233 614.723 102.233C614.925 102.233 615.13 102.253 615.338 102.292C615.553 102.324 615.706 102.357 615.797 102.389L615.543 104.177L614.205 104.098C613.698 104.066 613.271 104.183 612.926 104.45C612.581 104.71 612.314 105.062 612.125 105.505V111.491L613.717 111.764V112.995H608.61ZM621.588 113.2C620.612 113.2 619.762 112.979 619.039 112.536C618.317 112.087 617.757 111.465 617.36 110.671C616.969 109.876 616.774 108.958 616.774 107.917V107.487C616.774 106.485 616.979 105.589 617.389 104.802C617.806 104.007 618.356 103.382 619.039 102.927C619.729 102.464 620.481 102.233 621.295 102.233C622.714 102.233 623.789 102.663 624.518 103.522C625.254 104.382 625.621 105.527 625.621 106.96V108.161H618.766L618.737 108.21C618.756 109.225 619.013 110.062 619.508 110.72C620.003 111.371 620.696 111.696 621.588 111.696C622.239 111.696 622.809 111.605 623.297 111.423C623.792 111.234 624.218 110.977 624.576 110.651L625.328 111.901C624.951 112.266 624.449 112.575 623.824 112.829C623.206 113.076 622.461 113.2 621.588 113.2ZM618.824 106.657H623.698V106.403C623.698 105.648 623.496 105.016 623.092 104.509C622.688 104.001 622.089 103.747 621.295 103.747C620.651 103.747 620.101 104.02 619.645 104.567C619.189 105.108 618.909 105.788 618.805 106.608L618.824 106.657ZM526.832 138.995V137.764L528.424 137.491V129.942L526.832 129.669V128.429H530.348V137.491L531.94 137.764V138.995H526.832ZM528.326 125.821V123.761H530.348V125.821H528.326ZM533.268 138.995V137.764L534.86 137.491V129.942L533.268 129.669V128.429H536.578L536.715 130.001C537.067 129.441 537.506 129.008 538.033 128.702C538.567 128.389 539.173 128.233 539.85 128.233C540.989 128.233 541.871 128.569 542.496 129.239C543.121 129.903 543.434 130.932 543.434 132.325V137.491L545.026 137.764V138.995H539.918V137.764L541.51 137.491V132.364C541.51 131.433 541.324 130.772 540.953 130.382C540.589 129.991 540.029 129.796 539.274 129.796C538.72 129.796 538.229 129.929 537.799 130.196C537.376 130.463 537.037 130.828 536.783 131.29V137.491L538.375 137.764V138.995H533.268ZM546.1 143.057V141.817L547.594 141.544V129.942L546.002 129.669V128.429H549.244L549.42 129.718C550.143 128.728 551.155 128.233 552.457 128.233C553.33 128.233 554.075 128.471 554.694 128.946C555.312 129.415 555.784 130.076 556.11 130.929C556.435 131.775 556.598 132.768 556.598 133.907V134.112C556.598 135.128 556.432 136.016 556.1 136.778C555.774 137.54 555.306 138.136 554.694 138.565C554.082 138.988 553.346 139.2 552.487 139.2C551.204 139.2 550.214 138.767 549.518 137.901V141.544L551.198 141.817V143.057H546.1ZM551.891 137.696C552.802 137.696 553.492 137.364 553.961 136.7C554.43 136.036 554.664 135.173 554.664 134.112V133.907C554.664 132.703 554.43 131.716 553.961 130.948C553.492 130.18 552.796 129.796 551.871 129.796C551.324 129.796 550.856 129.919 550.465 130.167C550.074 130.414 549.759 130.753 549.518 131.182V136.329C549.759 136.765 550.071 137.104 550.455 137.345C550.846 137.579 551.324 137.696 551.891 137.696ZM562.741 139.2C561.595 139.2 560.699 138.832 560.055 138.096C559.41 137.361 559.088 136.215 559.088 134.659V129.942L557.877 129.669V128.429H561.012V134.679C561.012 135.805 561.178 136.58 561.51 137.003C561.842 137.426 562.36 137.638 563.063 137.638C563.746 137.638 564.31 137.501 564.752 137.227C565.201 136.947 565.54 136.554 565.768 136.046V129.942L564.352 129.669V128.429H567.692V137.491L568.903 137.764V138.995H565.963L565.836 137.432C565.504 137.999 565.074 138.435 564.547 138.741C564.026 139.047 563.424 139.2 562.741 139.2ZM573.991 139.161C573.209 139.161 572.588 138.933 572.125 138.477C571.67 138.015 571.442 137.279 571.442 136.27V129.854H569.772V128.429H571.442V125.88H573.366V128.429H575.66V129.854H573.366V136.27C573.366 136.778 573.466 137.152 573.668 137.393C573.87 137.634 574.14 137.755 574.479 137.755C574.707 137.755 574.961 137.735 575.241 137.696C575.52 137.651 575.739 137.611 575.895 137.579L576.158 138.839C575.879 138.923 575.533 138.998 575.123 139.063C574.72 139.128 574.342 139.161 573.991 139.161ZM586.1 139.161C585.319 139.161 584.697 138.933 584.235 138.477C583.779 138.015 583.551 137.279 583.551 136.27V129.854H581.881V128.429H583.551V125.88H585.475V128.429H587.77V129.854H585.475V136.27C585.475 136.778 585.576 137.152 585.778 137.393C585.979 137.634 586.25 137.755 586.588 137.755C586.816 137.755 587.07 137.735 587.35 137.696C587.63 137.651 587.848 137.611 588.004 137.579L588.268 138.839C587.988 138.923 587.643 138.998 587.233 139.063C586.829 139.128 586.451 139.161 586.1 139.161ZM594.078 139.2C593.102 139.2 592.259 138.972 591.549 138.516C590.846 138.054 590.302 137.419 589.918 136.612C589.534 135.798 589.342 134.871 589.342 133.829V133.614C589.342 132.572 589.534 131.648 589.918 130.841C590.302 130.027 590.846 129.389 591.549 128.927C592.259 128.464 593.095 128.233 594.059 128.233C595.035 128.233 595.875 128.464 596.578 128.927C597.288 129.389 597.835 130.024 598.219 130.831C598.603 131.638 598.795 132.566 598.795 133.614V133.829C598.795 134.877 598.603 135.808 598.219 136.622C597.835 137.429 597.291 138.061 596.588 138.516C595.885 138.972 595.048 139.2 594.078 139.2ZM594.078 137.696C594.99 137.696 595.683 137.332 596.158 136.602C596.634 135.873 596.871 134.949 596.871 133.829V133.614C596.871 132.872 596.764 132.211 596.549 131.632C596.341 131.046 596.028 130.587 595.612 130.255C595.195 129.916 594.677 129.747 594.059 129.747C593.447 129.747 592.933 129.916 592.516 130.255C592.099 130.587 591.787 131.046 591.578 131.632C591.37 132.211 591.266 132.872 591.266 133.614V133.829C591.266 134.949 591.5 135.873 591.969 136.602C592.444 137.332 593.147 137.696 594.078 137.696ZM609.899 143.263C609.391 143.263 608.841 143.191 608.248 143.048C607.656 142.911 607.135 142.722 606.686 142.481L607.184 140.987C607.542 141.176 607.965 141.332 608.453 141.456C608.942 141.58 609.417 141.641 609.879 141.641C610.739 141.641 611.367 141.401 611.764 140.919C612.168 140.437 612.369 139.75 612.369 138.858V137.852C611.666 138.751 610.699 139.2 609.469 139.2C608.61 139.2 607.867 138.988 607.242 138.565C606.617 138.136 606.136 137.54 605.797 136.778C605.465 136.01 605.299 135.121 605.299 134.112V133.907C605.299 132.774 605.465 131.781 605.797 130.929C606.136 130.076 606.617 129.415 607.242 128.946C607.867 128.471 608.616 128.233 609.489 128.233C610.797 128.233 611.8 128.741 612.496 129.757L612.672 128.429H615.602V129.659L614.293 129.942V138.858C614.293 140.225 613.912 141.3 613.151 142.081C612.389 142.869 611.305 143.263 609.899 143.263ZM609.948 137.638C610.527 137.638 611.012 137.507 611.403 137.247C611.793 136.98 612.116 136.606 612.369 136.124V131.261C612.122 130.811 611.8 130.457 611.403 130.196C611.005 129.929 610.527 129.796 609.967 129.796C609.049 129.796 608.362 130.18 607.907 130.948C607.451 131.716 607.223 132.703 607.223 133.907V134.112C607.223 135.173 607.448 136.026 607.897 136.671C608.346 137.315 609.03 137.638 609.948 137.638ZM621.285 139.2C620.309 139.2 619.466 138.972 618.756 138.516C618.053 138.054 617.509 137.419 617.125 136.612C616.741 135.798 616.549 134.871 616.549 133.829V133.614C616.549 132.572 616.741 131.648 617.125 130.841C617.509 130.027 618.053 129.389 618.756 128.927C619.466 128.464 620.302 128.233 621.266 128.233C622.242 128.233 623.082 128.464 623.785 128.927C624.495 129.389 625.042 130.024 625.426 130.831C625.81 131.638 626.002 132.566 626.002 133.614V133.829C626.002 134.877 625.81 135.808 625.426 136.622C625.042 137.429 624.498 138.061 623.795 138.516C623.092 138.972 622.255 139.2 621.285 139.2ZM621.285 137.696C622.197 137.696 622.89 137.332 623.366 136.602C623.841 135.873 624.078 134.949 624.078 133.829V133.614C624.078 132.872 623.971 132.211 623.756 131.632C623.548 131.046 623.235 130.587 622.819 130.255C622.402 129.916 621.884 129.747 621.266 129.747C620.654 129.747 620.14 129.916 619.723 130.255C619.306 130.587 618.994 131.046 618.785 131.632C618.577 132.211 618.473 132.872 618.473 133.614V133.829C618.473 134.949 618.707 135.873 619.176 136.602C619.651 137.332 620.354 137.696 621.285 137.696ZM631.1 139.2C630 139.2 629.163 138.933 628.59 138.399C628.017 137.859 627.731 137.1 627.731 136.124C627.731 135.121 628.141 134.317 628.961 133.712C629.782 133.1 630.921 132.794 632.379 132.794H634.264V131.759C634.264 131.121 634.069 130.626 633.678 130.274C633.294 129.923 632.75 129.747 632.047 129.747C631.604 129.747 631.22 129.802 630.895 129.913C630.569 130.017 630.273 130.164 630.006 130.352L629.801 131.827H628.317V129.405C629.274 128.624 630.527 128.233 632.076 128.233C633.359 128.233 634.365 128.539 635.094 129.151C635.823 129.763 636.188 130.639 636.188 131.778V136.866C636.188 137.003 636.188 137.136 636.188 137.266C636.194 137.397 636.204 137.527 636.217 137.657L637.242 137.764V138.995H634.479C634.368 138.461 634.3 137.976 634.274 137.54C633.903 138.015 633.437 138.412 632.877 138.731C632.324 139.044 631.731 139.2 631.1 139.2ZM631.383 137.589C632.021 137.589 632.604 137.436 633.131 137.13C633.658 136.824 634.036 136.456 634.264 136.026V134.112H632.311C631.425 134.112 630.761 134.324 630.319 134.747C629.876 135.17 629.655 135.642 629.655 136.163C629.655 137.113 630.231 137.589 631.383 137.589ZM638.639 138.995V137.764L640.231 137.491V125.274L638.639 125.001V123.761H642.155V137.491L643.746 137.764V138.995H638.639ZM550.221 164.995V163.764L551.813 163.491V155.942L550.221 155.669V154.429H553.532L553.698 155.776L553.717 155.962C554.017 155.421 554.384 154.998 554.821 154.692C555.263 154.386 555.768 154.233 556.334 154.233C556.536 154.233 556.741 154.253 556.949 154.292C557.164 154.324 557.317 154.357 557.408 154.389L557.155 156.177L555.817 156.098C555.309 156.066 554.882 156.183 554.537 156.45C554.192 156.71 553.925 157.062 553.737 157.505V163.491L555.328 163.764V164.995H550.221ZM558.141 164.995V163.764L559.733 163.491V151.274L558.141 151.001V149.761H561.657V155.835C562.021 155.327 562.467 154.933 562.994 154.653C563.522 154.373 564.108 154.233 564.752 154.233C565.885 154.233 566.764 154.572 567.389 155.249C568.014 155.926 568.326 156.968 568.326 158.374V163.491L569.918 163.764V164.995H564.811V163.764L566.403 163.491V158.354C566.403 156.649 565.657 155.796 564.166 155.796C563.639 155.796 563.157 155.923 562.721 156.177C562.291 156.424 561.936 156.763 561.657 157.192V163.491L563.248 163.764V164.995H558.141ZM572.653 169.263C572.503 169.263 572.308 169.243 572.067 169.204C571.826 169.171 571.64 169.139 571.51 169.106L571.705 167.593C571.816 167.606 571.969 167.615 572.164 167.622C572.36 167.635 572.493 167.641 572.565 167.641C572.975 167.641 573.307 167.485 573.561 167.173C573.821 166.86 574.062 166.434 574.283 165.893L574.742 164.78L571.002 155.825L569.869 155.669V154.429H574.303V155.669L573.024 155.864L575.084 161.147L575.582 162.524H575.641L578.082 155.864L576.735 155.669V154.429H581.08V155.669L579.987 155.825L575.826 166.616C575.533 167.384 575.143 168.016 574.655 168.511C574.166 169.012 573.499 169.263 572.653 169.263ZM586.217 165.161C585.436 165.161 584.814 164.933 584.352 164.477C583.896 164.015 583.668 163.279 583.668 162.27V155.854H581.998V154.429H583.668V151.88H585.592V154.429H587.887V155.854H585.592V162.27C585.592 162.778 585.693 163.152 585.895 163.393C586.097 163.634 586.367 163.755 586.705 163.755C586.933 163.755 587.187 163.735 587.467 163.696C587.747 163.651 587.965 163.611 588.121 163.579L588.385 164.839C588.105 164.923 587.76 164.998 587.35 165.063C586.946 165.128 586.569 165.161 586.217 165.161ZM589.371 164.995V163.764L590.963 163.491V151.274L589.371 151.001V149.761H592.887V155.835C593.252 155.327 593.698 154.933 594.225 154.653C594.752 154.373 595.338 154.233 595.983 154.233C597.116 154.233 597.994 154.572 598.619 155.249C599.244 155.926 599.557 156.968 599.557 158.374V163.491L601.149 163.764V164.995H596.041V163.764L597.633 163.491V158.354C597.633 156.649 596.888 155.796 595.397 155.796C594.869 155.796 594.388 155.923 593.951 156.177C593.522 156.424 593.167 156.763 592.887 157.192V163.491L594.479 163.764V164.995H589.371ZM602.467 164.995V163.764L604.059 163.491V155.942L602.467 155.669V154.429H605.787L605.914 155.805C606.253 155.304 606.689 154.917 607.223 154.643C607.757 154.37 608.375 154.233 609.078 154.233C609.782 154.233 610.384 154.396 610.885 154.721C611.393 155.047 611.774 155.535 612.028 156.186C612.36 155.587 612.799 155.112 613.346 154.761C613.893 154.409 614.531 154.233 615.26 154.233C616.341 154.233 617.194 154.604 617.819 155.346C618.444 156.082 618.756 157.192 618.756 158.677V163.491L620.348 163.764V164.995H615.231V163.764L616.823 163.491V158.657C616.823 157.615 616.644 156.88 616.285 156.45C615.927 156.014 615.397 155.796 614.694 155.796C614.023 155.796 613.483 156.033 613.073 156.509C612.669 156.977 612.435 157.57 612.369 158.286V163.491L613.961 163.764V164.995H608.854V163.764L610.446 163.491V158.657C610.446 157.667 610.26 156.945 609.889 156.489C609.524 156.027 608.994 155.796 608.297 155.796C607.711 155.796 607.229 155.916 606.852 156.157C606.474 156.398 606.185 156.736 605.983 157.173V163.491L607.574 163.764V164.995H602.467Z" fill="black"/>
<path d="M255.716 130.936C256.302 130.35 256.302 129.4 255.716 128.815L246.17 119.269C245.584 118.683 244.634 118.683 244.049 119.269C243.463 119.854 243.463 120.804 244.049 121.39L252.534 129.875L244.049 138.36C243.463 138.946 243.463 139.896 244.049 140.482C244.634 141.068 245.584 141.068 246.17 140.482L255.716 130.936ZM150.288 131.375H254.655V128.375H150.288V131.375Z" fill="black"/>
<path d="M510.37 130.936C510.956 130.35 510.956 129.4 510.37 128.815L500.824 119.269C500.239 118.683 499.289 118.683 498.703 119.269C498.117 119.854 498.117 120.804 498.703 121.39L507.188 129.875L498.703 138.36C498.117 138.946 498.117 139.896 498.703 140.482C499.289 141.068 500.239 141.068 500.824 140.482L510.37 130.936ZM404.943 131.375L509.31 131.375V128.375L404.943 128.375V131.375Z" fill="black"/>
<path d="M807.256 213.597C807.849 213.025 807.825 212.112 807.203 211.558L797.062 202.525C796.44 201.971 795.455 201.985 794.862 202.557C794.27 203.129 794.294 204.042 794.916 204.596L803.93 212.625L795.347 220.909C794.755 221.48 794.779 222.393 795.401 222.948C796.023 223.502 797.008 223.488 797.601 222.916L807.256 213.597ZM659.608 129.771C679.691 129.817 692 135.097 700.911 142.839C709.933 150.678 715.568 161.087 722.188 171.817C728.759 182.465 736.234 193.28 748.899 201.292C761.587 209.318 779.302 214.423 806.168 214.035L806.092 211.151C779.68 211.533 762.651 206.514 750.637 198.914C738.601 191.3 731.419 180.989 724.886 170.402C718.404 159.896 712.49 148.963 703.028 140.743C693.457 132.428 680.348 126.935 659.589 126.887L659.608 129.771Z" fill="black"/>
<path d="M807.256 43.0666C807.849 43.6385 807.825 44.5514 807.203 45.1057L797.062 54.1387C796.44 54.693 795.455 54.6787 794.862 54.1069C794.27 53.535 794.294 52.6221 794.916 52.0678L803.93 44.0385L795.347 35.755C794.755 35.1832 794.779 34.2703 795.401 33.7159C796.023 33.1617 797.008 33.1759 797.601 33.7477L807.256 43.0666ZM659.608 126.893C679.691 126.846 692 121.566 700.911 113.824C709.933 105.986 715.568 95.5764 722.188 84.8469C728.759 74.1989 736.234 63.3834 748.899 55.3719C761.587 47.3458 779.302 42.2404 806.168 42.6284L806.092 45.5121C779.68 45.1306 762.651 50.1498 750.637 57.7494C738.601 65.3637 731.419 75.675 724.886 86.2619C718.404 96.7672 712.49 107.7 703.028 115.92C693.457 124.236 680.348 129.729 659.589 129.777L659.608 126.893Z" fill="black"/>
<path d="M683.622 171.735L684.886 170.565L690.278 172.714L690.929 173.115L690.968 173.079L690.555 172.458L688.208 167.49L689.465 166.325L692.542 173.688L691.581 174.577L683.622 171.735ZM695.212 183.708C694.696 183.23 694.436 182.71 694.431 182.149C694.436 181.588 694.771 180.999 695.437 180.382L699.674 176.458L698.572 175.437L699.513 174.566L700.616 175.587L702.299 174.028L703.57 175.204L701.886 176.763L703.402 178.166L702.46 179.038L700.945 177.635L696.708 181.558C696.372 181.868 696.192 182.159 696.166 182.43C696.14 182.7 696.239 182.939 696.463 183.146C696.613 183.286 696.794 183.429 697.004 183.576C697.219 183.719 697.389 183.829 697.514 183.905L696.856 184.836C696.615 184.717 696.338 184.551 696.024 184.341C695.715 184.133 695.444 183.923 695.212 183.708ZM697.404 185.535L698.217 184.782L699.449 185.588L707.517 178.118L706.646 176.978L707.465 176.22L709.787 178.369L705.775 182.083C706.351 181.996 706.906 182.028 707.439 182.179C707.972 182.33 708.452 182.603 708.877 182.997C709.625 183.69 709.982 184.434 709.948 185.23C709.913 186.026 709.432 186.854 708.503 187.714L705.124 190.843L705.995 191.984L705.182 192.736L701.809 189.613L702.622 188.861L703.853 189.667L707.246 186.526C708.372 185.483 708.443 184.506 707.458 183.594C707.11 183.272 706.708 183.055 706.253 182.943C705.805 182.832 705.347 182.822 704.879 182.913L700.719 186.765L701.59 187.905L700.777 188.658L697.404 185.535ZM706.04 193.53L706.852 192.778L708.084 193.584L713.069 188.968L712.199 187.828L713.018 187.069L715.204 189.094L714.424 190.019L714.314 190.145C714.869 189.997 715.391 189.963 715.881 190.043C716.376 190.127 716.81 190.342 717.184 190.688C717.317 190.811 717.44 190.949 717.551 191.1C717.672 191.251 717.751 191.365 717.79 191.44L716.442 192.378L715.61 191.512C715.296 191.182 714.937 190.993 714.533 190.945C714.133 190.893 713.725 190.945 713.308 191.1L709.355 194.76L710.225 195.901L709.413 196.653L706.04 193.53ZM714.475 201.592C713.83 200.994 713.415 200.34 713.23 199.627C713.05 198.91 713.091 198.188 713.353 197.459C713.62 196.735 714.097 196.054 714.785 195.417L715.068 195.154C715.731 194.541 716.457 194.119 717.248 193.889C718.048 193.658 718.824 193.612 719.576 193.751C720.337 193.891 720.987 194.209 721.524 194.707C722.461 195.574 722.887 196.494 722.801 197.465C722.719 198.441 722.206 199.366 721.26 200.242L720.466 200.976L715.939 196.785L715.888 196.797C715.23 197.43 714.847 198.098 714.74 198.803C714.636 199.504 714.879 200.127 715.468 200.672C715.898 201.07 716.335 201.363 716.778 201.55C717.229 201.737 717.68 201.84 718.132 201.86L717.803 203.084C717.313 203.076 716.778 202.959 716.197 202.732C715.625 202.505 715.051 202.125 714.475 201.592ZM716.971 195.901L720.189 198.881L720.357 198.725C720.856 198.264 721.139 197.754 721.208 197.197C721.277 196.639 721.049 196.118 720.524 195.632C720.099 195.238 719.555 195.069 718.893 195.125C718.235 195.176 717.601 195.421 716.99 195.859L716.971 195.901ZM720.995 207.628C720.527 207.195 720.135 206.745 719.822 206.279C719.508 205.813 719.22 205.276 718.957 204.667L720.602 203.12L721.563 204.01L720.802 205.156C721.068 205.753 721.451 206.283 721.95 206.745C722.466 207.222 722.934 207.473 723.356 207.497C723.777 207.521 724.134 207.398 724.426 207.127C724.701 206.872 724.82 206.552 724.781 206.166C724.751 205.779 724.506 205.25 724.046 204.577C723.396 203.618 723.033 202.804 722.956 202.135C722.887 201.466 723.123 200.881 723.665 200.379C724.044 200.029 724.491 199.818 725.007 199.746C725.527 199.671 726.071 199.732 726.638 199.931C727.206 200.131 727.75 200.471 728.27 200.953C728.799 201.442 729.19 201.916 729.444 202.374C729.702 202.836 729.869 203.289 729.947 203.735L728.418 205.27L727.464 204.386L728.186 203.335C728.147 203.092 728.055 202.847 727.909 202.601C727.763 202.354 727.556 202.107 727.29 201.86C726.894 201.494 726.479 201.281 726.045 201.221C725.615 201.166 725.26 201.267 724.981 201.526C724.817 201.677 724.71 201.84 724.658 202.015C724.611 202.195 724.639 202.424 724.742 202.702C724.85 202.977 725.052 203.339 725.348 203.789C726.092 204.9 726.479 205.795 726.509 206.476C726.544 207.161 726.303 207.742 725.787 208.22C725.198 208.765 724.484 209.02 723.646 208.984C722.816 208.948 721.933 208.496 720.995 207.628ZM724.736 210.841L725.548 210.089L726.78 210.895L734.848 203.425L733.977 202.284L734.796 201.526L737.118 203.675L733.107 207.39C733.683 207.302 734.238 207.334 734.771 207.485C735.304 207.636 735.783 207.909 736.209 208.303C736.957 208.996 737.314 209.74 737.279 210.536C737.245 211.333 736.763 212.161 735.835 213.021L732.455 216.149L733.326 217.29L732.513 218.042L729.141 214.919L729.953 214.167L731.185 214.973L734.577 211.832C735.704 210.789 735.775 209.812 734.79 208.9C734.442 208.578 734.04 208.361 733.584 208.249C733.137 208.138 732.679 208.128 732.21 208.22L728.051 212.071L728.921 213.212L728.109 213.964L724.736 210.841ZM736.299 221.798C735.654 221.201 735.248 220.546 735.08 219.834C734.921 219.121 734.981 218.401 735.261 217.672C735.545 216.94 736.03 216.255 736.718 215.618L736.86 215.487C737.548 214.85 738.285 214.402 739.072 214.143C739.863 213.88 740.644 213.823 741.413 213.97C742.187 214.121 742.892 214.491 743.529 215.081C744.173 215.678 744.575 216.333 744.735 217.045C744.898 217.762 744.84 218.484 744.56 219.213C744.281 219.941 743.795 220.626 743.103 221.267L742.961 221.398C742.269 222.039 741.527 222.491 740.736 222.754C739.949 223.012 739.173 223.066 738.408 222.915C737.643 222.764 736.94 222.391 736.299 221.798ZM737.292 220.879C737.894 221.436 738.593 221.637 739.388 221.482C740.184 221.327 740.951 220.907 741.691 220.222L741.832 220.091C742.323 219.637 742.688 219.167 742.929 218.681C743.178 218.196 743.275 217.724 743.219 217.266C743.167 216.804 742.937 216.384 742.529 216.006C742.125 215.632 741.673 215.421 741.175 215.373C740.68 215.321 740.171 215.411 739.646 215.642C739.126 215.869 738.621 216.209 738.131 216.663L737.989 216.794C737.249 217.479 736.794 218.188 736.622 218.92C736.454 219.657 736.677 220.309 737.292 220.879ZM740.336 225.286L741.149 224.533L742.381 225.339L750.449 217.869L749.578 216.729L750.397 215.97L752.719 218.12L743.651 226.516L744.522 227.656L743.709 228.409L740.336 225.286ZM747.159 231.854C746.592 231.328 746.244 230.747 746.115 230.11C745.994 229.473 746.078 228.823 746.366 228.158C746.654 227.493 747.134 226.85 747.804 226.229L747.94 226.104C748.688 225.411 749.451 224.903 750.229 224.581C751.007 224.258 751.756 224.143 752.474 224.235C753.196 224.322 753.843 224.631 754.415 225.16C754.827 225.542 755.113 225.95 755.272 226.384C755.44 226.818 755.492 227.272 755.427 227.746L758.271 225.112L757.401 223.972L758.22 223.213L760.541 225.363L751.474 233.759L752.345 234.899L751.532 235.652L749.378 233.657L750.107 232.791C748.997 232.959 748.015 232.646 747.159 231.854ZM748.514 231.197C748.892 231.547 749.296 231.762 749.726 231.842C750.156 231.922 750.612 231.894 751.093 231.758L754.331 228.761C754.46 228.339 754.479 227.927 754.389 227.525C754.299 227.123 754.071 226.752 753.705 226.414C753.099 225.853 752.398 225.67 751.603 225.865C750.812 226.064 750.014 226.536 749.21 227.28L749.075 227.405C748.374 228.054 747.955 228.709 747.817 229.37C747.68 230.031 747.912 230.64 748.514 231.197Z" fill="black"/>
<path d="M694.733 91.5522L687.026 94.1616L686.065 93.2719L688.89 86.1422L690.186 87.3424L688.084 92.0717L687.652 92.6867L687.69 92.7226L688.361 92.3285L693.436 90.352L694.733 91.5522ZM702.575 85.772C702.059 86.2497 701.498 86.4905 700.892 86.4945C700.285 86.4905 699.649 86.18 698.983 85.563L694.746 81.6399L693.643 82.661L692.701 81.7892L693.804 80.7681L692.121 79.2096L693.391 78.0332L695.075 79.5917L696.59 78.1885L697.532 79.0603L696.016 80.4635L700.253 84.3867C700.589 84.6972 700.902 84.8644 701.195 84.8882C701.487 84.9121 701.745 84.8206 701.969 84.6136C702.119 84.4742 702.274 84.307 702.433 84.112C702.588 83.9129 702.706 83.7557 702.788 83.6402L703.794 84.2493C703.665 84.4722 703.486 84.729 703.258 85.0196C703.035 85.3062 702.807 85.557 702.575 85.772ZM704.548 83.7418L703.736 82.9894L704.606 81.8489L696.538 74.3788L695.307 75.1849L694.488 74.4266L696.809 72.2769L700.821 75.991C700.726 75.4576 700.761 74.9441 700.924 74.4505C701.087 73.9568 701.382 73.513 701.807 73.1189C702.556 72.4262 703.36 72.0958 704.219 72.1276C705.079 72.1595 705.974 72.6053 706.902 73.4652L710.282 76.5941L711.513 75.788L712.326 76.5404L708.953 79.6634L708.141 78.911L709.011 77.7705L705.619 74.6296C704.492 73.5866 703.437 73.5209 702.452 74.4325C702.104 74.755 701.87 75.1272 701.749 75.5492C701.629 75.9632 701.618 76.3871 701.717 76.8211L705.877 80.6725L707.109 79.8664L707.921 80.6188L704.548 83.7418ZM713.184 75.7462L712.371 74.9938L713.242 73.8533L708.257 69.2375L707.025 70.0437L706.206 69.2853L708.392 67.261L709.392 67.9836L709.527 68.0851C709.368 67.5715 709.331 67.0879 709.417 66.6341C709.508 66.1763 709.74 65.7742 710.114 65.4279C710.247 65.3045 710.396 65.191 710.559 65.0875C710.722 64.976 710.845 64.9024 710.927 64.8666L711.939 66.1146L711.004 66.8849C710.647 67.1755 710.443 67.5079 710.391 67.8821C710.335 68.2523 710.391 68.6305 710.559 69.0166L714.512 72.677L715.744 71.8709L716.557 72.6232L713.184 75.7462ZM721.89 67.9358C721.245 68.5329 720.538 68.9171 719.768 69.0883C718.994 69.2554 718.214 69.2176 717.427 68.9748C716.645 68.728 715.91 68.2861 715.222 67.6492L714.938 67.3864C714.276 66.7734 713.82 66.1006 713.571 65.3681C713.321 64.6277 713.272 63.9092 713.422 63.2125C713.573 62.5079 713.917 61.9068 714.454 61.4092C715.391 60.5414 716.385 60.1473 717.434 60.2269C718.487 60.3025 719.487 60.7782 720.433 61.654L721.226 62.3885L716.699 66.5803L716.711 66.6281C717.395 67.2372 718.117 67.5915 718.878 67.691C719.635 67.7865 720.308 67.5616 720.897 67.0162C721.327 66.6181 721.643 66.2141 721.845 65.8041C722.047 65.3861 722.159 64.9681 722.18 64.5501L723.502 64.8546C723.494 65.3084 723.367 65.8041 723.122 66.3415C722.877 66.8709 722.466 67.4024 721.89 67.9358ZM715.744 65.6249L718.962 62.6452L718.794 62.49C718.296 62.0282 717.745 61.7655 717.144 61.7018C716.542 61.6381 715.978 61.8491 715.454 62.3347C715.028 62.7288 714.845 63.2324 714.906 63.8455C714.962 64.4545 715.226 65.0417 715.699 65.607L715.744 65.6249ZM728.41 61.8988C727.942 62.3328 727.456 62.695 726.953 62.9856C726.45 63.2762 725.869 63.5429 725.211 63.7858L723.541 62.2631L724.502 61.3734L725.74 62.078C726.385 61.8312 726.957 61.4769 727.456 61.0151C727.972 60.5374 728.242 60.1035 728.268 59.7134C728.294 59.3232 728.161 58.9928 727.868 58.7221C727.593 58.4673 727.247 58.3579 726.83 58.3937C726.413 58.4216 725.841 58.6485 725.115 59.0744C724.078 59.6755 723.199 60.0119 722.477 60.0836C721.755 60.1473 721.123 59.9283 720.581 59.4267C720.203 59.0764 719.975 58.6624 719.897 58.1847C719.816 57.703 719.882 57.1994 720.097 56.674C720.312 56.1485 720.68 55.6449 721.2 55.1632C721.729 54.6736 722.24 54.3113 722.735 54.0765C723.234 53.8376 723.724 53.6824 724.205 53.6107L725.863 55.0259L724.908 55.9097L723.773 55.2409C723.511 55.2767 723.247 55.3623 722.98 55.4976C722.713 55.633 722.447 55.8241 722.18 56.0709C721.785 56.4371 721.555 56.8213 721.49 57.2233C721.43 57.6214 721.54 57.9498 721.819 58.2086C721.983 58.3599 722.159 58.4594 722.348 58.5072C722.541 58.5509 722.789 58.5251 723.09 58.4295C723.386 58.33 723.778 58.1429 724.263 57.8682C725.463 57.1795 726.43 56.8213 727.165 56.7934C727.905 56.7616 728.533 56.9845 729.049 57.4622C729.638 58.0076 729.913 58.6684 729.874 59.4446C729.835 60.2129 729.347 61.031 728.41 61.8988ZM731.88 58.4355L731.067 57.6831L731.938 56.5426L723.87 49.0725L722.638 49.8787L721.819 49.1203L724.141 46.9707L728.152 50.6848C728.058 50.1514 728.092 49.6378 728.255 49.1442C728.419 48.6506 728.713 48.2067 729.139 47.8126C729.887 47.1199 730.691 46.7895 731.551 46.8214C732.411 46.8532 733.305 47.2991 734.234 48.1589L737.613 51.2879L738.845 50.4818L739.657 51.2341L736.285 54.3571L735.472 53.6047L736.343 52.4642L732.95 49.3233C731.824 48.2804 730.768 48.2147 729.784 49.1263C729.436 49.4487 729.201 49.8209 729.081 50.2429C728.961 50.6569 728.95 51.0809 729.049 51.5148L733.208 55.3663L734.44 54.5601L735.253 55.3125L731.88 58.4355ZM743.714 47.729C743.069 48.3261 742.362 48.7023 741.592 48.8576C740.823 49.0049 740.044 48.9491 739.258 48.6904C738.467 48.4276 737.727 47.9778 737.039 47.3409L736.897 47.2095C736.209 46.5726 735.726 45.8899 735.446 45.1614C735.162 44.4289 735.1 43.7064 735.259 42.9938C735.423 42.2772 735.822 41.6244 736.459 41.0352C737.104 40.4381 737.811 40.0659 738.58 39.9186C739.354 39.7673 740.135 39.821 740.922 40.0798C741.708 40.3386 742.448 40.7884 743.14 41.4293L743.282 41.5607C743.974 42.2016 744.462 42.8883 744.746 43.6208C745.025 44.3493 745.083 45.0678 744.92 45.7764C744.757 46.485 744.355 47.1359 743.714 47.729ZM742.721 46.8094C743.323 46.2521 743.54 45.6052 743.372 44.8688C743.205 44.1323 742.751 43.4217 742.011 42.737L741.87 42.6057C741.379 42.1518 740.872 41.8135 740.348 41.5905C739.823 41.3596 739.314 41.2701 738.819 41.3218C738.32 41.3696 737.867 41.5826 737.458 41.9608C737.054 42.335 736.826 42.7529 736.775 43.2147C736.719 43.6725 736.816 44.1443 737.065 44.6299C737.31 45.1116 737.678 45.5793 738.168 46.0332L738.31 46.1645C739.049 46.8492 739.814 47.2712 740.606 47.4304C741.401 47.5857 742.106 47.3787 742.721 46.8094ZM747.48 43.991L746.668 43.2386L747.538 42.0981L739.47 34.628L738.239 35.4342L737.42 34.6758L739.741 32.5261L748.809 40.9218L750.041 40.1156L750.853 40.868L747.48 43.991ZM754.574 37.6734C754.007 38.1989 753.379 38.5213 752.691 38.6407C752.003 38.7522 751.3 38.6746 750.582 38.4078C749.864 38.1411 749.17 37.6973 748.499 37.0763L748.364 36.9509C747.616 36.2582 747.068 35.5516 746.719 34.8311C746.371 34.1105 746.246 33.4179 746.345 32.7531C746.44 32.0843 746.773 31.4851 747.345 30.9557C747.758 30.5735 748.198 30.3088 748.667 30.1615C749.136 30.0063 749.626 29.9585 750.137 30.0182L747.293 27.3849L746.061 28.191L745.242 27.4326L747.564 25.283L756.632 33.6786L757.863 32.8725L758.676 33.6249L756.522 35.6193L755.587 34.9445C755.767 35.9716 755.43 36.8812 754.574 37.6734ZM753.865 36.4194C754.243 36.0691 754.475 35.6949 754.561 35.2968C754.647 34.8987 754.617 34.4768 754.471 34.0309L751.234 31.0333C750.778 30.9139 750.333 30.896 749.899 30.9796C749.464 31.0632 749.065 31.2742 748.699 31.6125C748.093 32.1738 747.895 32.8227 748.106 33.5592C748.321 34.2916 748.83 35.0301 749.634 35.7745L749.77 35.8999C750.471 36.5488 751.178 36.9369 751.892 37.0643C752.605 37.1917 753.263 36.9767 753.865 36.4194Z" fill="black"/>
</svg>
