<svg width="804" height="177" viewBox="0 0 804 177" fill="none" xmlns="http://www.w3.org/2000/svg">
<path d="M803.222 146.071C803.613 145.68 803.613 145.047 803.222 144.657L796.858 138.293C796.468 137.902 795.834 137.902 795.444 138.293C795.053 138.683 795.053 139.316 795.444 139.707L801.101 145.364L795.444 151.021C795.053 151.411 795.053 152.044 795.444 152.435C795.834 152.825 796.468 152.825 796.858 152.435L803.222 146.071ZM74.368 146.364H802.515V144.364H74.368V146.364Z" fill="#919191"/>
<path d="M75.0751 0.305222C74.6846 -0.0852966 74.0515 -0.0852966 73.6609 0.305222L67.297 6.66919C66.9064 7.05971 66.9064 7.69287 67.297 8.0834C67.6875 8.47392 68.3207 8.47392 68.7112 8.0834L74.368 2.42654L80.0249 8.0834C80.4154 8.47392 81.0486 8.47392 81.4391 8.0834C81.8296 7.69287 81.8296 7.05971 81.4391 6.66919L75.0751 0.305222ZM75.368 145.364L75.368 1.01233H73.368L73.368 145.364H75.368Z" fill="#909090"/>
<rect x="151.493" y="121.305" width="95.2716" height="21.3854" fill="#E5CC44"/>
<rect x="321.62" y="121.305" width="40.8307" height="21.3854" fill="#E5CC44"/>
<rect x="402.148" y="121.305" width="40.8307" height="21.3854" fill="#E5CC44"/>
<rect x="714.049" y="121.305" width="23.8179" height="21.3854" fill="#E5CC44"/>
<rect x="570.007" y="119.969" width="104.345" height="22.722" fill="#E5CC44"/>
<rect x="151.493" y="110.613" width="95.2716" height="21.3854" rx="8" fill="white"/>
<rect x="321.62" y="110.613" width="40.8307" height="21.3854" rx="8" fill="white"/>
<rect x="402.148" y="110.613" width="40.8307" height="21.3854" rx="8" fill="white"/>
<rect x="570.007" y="110.613" width="104.345" height="21.3854" rx="8" fill="white"/>
<rect x="714.049" y="110.613" width="23.8179" height="21.3854" rx="8" fill="white"/>
<path d="M765.372 168.64V167.656L766.645 167.437V158.429H764.067L763.841 160.007H762.684V157.265H772.138V160.007H770.997L770.763 158.429H768.184V167.437L769.458 167.656V168.64H765.372ZM772.817 168.64V167.656L774.091 167.437V161.398L772.817 161.179V160.187H775.63V167.437L776.903 167.656V168.64H772.817ZM774.013 158.101V156.452H775.63V158.101H774.013ZM777.966 168.64V167.656L779.239 167.437V161.398L777.966 161.179V160.187H780.622L780.724 161.288C780.994 160.887 781.343 160.577 781.77 160.359C782.197 160.14 782.692 160.031 783.255 160.031C783.817 160.031 784.299 160.161 784.7 160.421C785.106 160.682 785.411 161.072 785.614 161.593C785.88 161.114 786.231 160.734 786.669 160.452C787.106 160.171 787.617 160.031 788.2 160.031C789.065 160.031 789.747 160.327 790.247 160.921C790.747 161.51 790.997 162.398 790.997 163.585V167.437L792.27 167.656V168.64H788.177V167.656L789.45 167.437V163.57C789.45 162.736 789.307 162.148 789.02 161.804C788.734 161.455 788.309 161.281 787.747 161.281C787.211 161.281 786.778 161.471 786.45 161.851C786.127 162.226 785.94 162.7 785.888 163.273V167.437L787.161 167.656V168.64H783.075V167.656L784.349 167.437V163.57C784.349 162.778 784.2 162.2 783.903 161.835C783.612 161.466 783.187 161.281 782.63 161.281C782.161 161.281 781.776 161.377 781.474 161.57C781.171 161.762 780.94 162.033 780.778 162.382V167.437L782.052 167.656V168.64H777.966ZM797.145 168.804C796.364 168.804 795.684 168.627 795.106 168.273C794.528 167.913 794.08 167.416 793.763 166.781C793.45 166.145 793.294 165.411 793.294 164.577V164.234C793.294 163.432 793.458 162.716 793.786 162.085C794.119 161.45 794.559 160.95 795.106 160.585C795.658 160.216 796.26 160.031 796.911 160.031C798.046 160.031 798.906 160.374 799.489 161.062C800.078 161.749 800.372 162.666 800.372 163.812V164.773H794.888L794.864 164.812C794.88 165.624 795.086 166.294 795.481 166.82C795.877 167.341 796.432 167.601 797.145 167.601C797.666 167.601 798.122 167.528 798.513 167.382C798.908 167.231 799.25 167.025 799.536 166.765L800.138 167.765C799.836 168.057 799.434 168.304 798.934 168.507C798.44 168.705 797.843 168.804 797.145 168.804ZM794.934 163.57H798.833V163.367C798.833 162.762 798.671 162.257 798.349 161.851C798.026 161.445 797.546 161.242 796.911 161.242C796.395 161.242 795.955 161.46 795.591 161.898C795.226 162.33 795.002 162.874 794.919 163.531L794.934 163.57Z" fill="black"/>
<path d="M4.875 23V22.0156L6.14844 21.7969V12.8359L4.875 12.6172V11.625H10.1016C11.3151 11.625 12.2578 11.9375 12.9297 12.5625C13.6068 13.1875 13.9453 14.0104 13.9453 15.0312C13.9453 16.0625 13.6068 16.888 12.9297 17.5078C12.2578 18.1276 11.3151 18.4375 10.1016 18.4375H7.6875V21.7969L8.96094 22.0156V23H4.875ZM7.6875 17.2344H10.1016C10.8724 17.2344 11.4479 17.0286 11.8281 16.6172C12.2135 16.2005 12.4062 15.6771 12.4062 15.0469C12.4062 14.4167 12.2135 13.8906 11.8281 13.4688C11.4479 13.0469 10.8724 12.8359 10.1016 12.8359H7.6875V17.2344ZM14.9453 23V22.0156L16.2188 21.7969V15.7578L14.9453 15.5391V14.5469H17.5938L17.7266 15.625L17.7422 15.7734C17.9818 15.3411 18.276 15.0026 18.625 14.7578C18.9792 14.513 19.3828 14.3906 19.8359 14.3906C19.9974 14.3906 20.1615 14.4062 20.3281 14.4375C20.5 14.4635 20.6224 14.4896 20.6953 14.5156L20.4922 15.9453L19.4219 15.8828C19.0156 15.8568 18.6745 15.9505 18.3984 16.1641C18.1224 16.3724 17.9089 16.6536 17.7578 17.0078V21.7969L19.0312 22.0156V23H14.9453ZM25.3281 23.1641C24.5469 23.1641 23.8672 22.987 23.2891 22.6328C22.7109 22.2734 22.263 21.776 21.9453 21.1406C21.6328 20.5052 21.4766 19.7708 21.4766 18.9375V18.5938C21.4766 17.7917 21.6406 17.0755 21.9688 16.4453C22.3021 15.8099 22.7422 15.3099 23.2891 14.9453C23.8411 14.5755 24.4427 14.3906 25.0938 14.3906C26.2292 14.3906 27.0885 14.7344 27.6719 15.4219C28.2604 16.1094 28.5547 17.026 28.5547 18.1719V19.1328H23.0703L23.0469 19.1719C23.0625 19.9844 23.2682 20.6536 23.6641 21.1797C24.0599 21.7005 24.6146 21.9609 25.3281 21.9609C25.849 21.9609 26.3047 21.888 26.6953 21.7422C27.0911 21.5911 27.4323 21.3854 27.7188 21.125L28.3203 22.125C28.0182 22.4167 27.6172 22.6641 27.1172 22.8672C26.6224 23.0651 26.026 23.1641 25.3281 23.1641ZM23.1172 17.9297H27.0156V17.7266C27.0156 17.1224 26.8542 16.6172 26.5312 16.2109C26.2083 15.8047 25.7292 15.6016 25.0938 15.6016C24.5781 15.6016 24.138 15.8203 23.7734 16.2578C23.4089 16.6901 23.1849 17.2344 23.1016 17.8906L23.1172 17.9297ZM33.2266 23.1641C32.6589 23.1641 32.1276 23.1068 31.6328 22.9922C31.138 22.8776 30.612 22.7005 30.0547 22.4609L30.0391 20.4531H31.2031L31.4922 21.6641C32.0443 21.8932 32.6224 22.0078 33.2266 22.0078C33.8516 22.0078 34.2995 21.888 34.5703 21.6484C34.8411 21.4089 34.9766 21.112 34.9766 20.7578C34.9766 20.4245 34.8385 20.1432 34.5625 19.9141C34.2917 19.6797 33.7969 19.4818 33.0781 19.3203C32.0573 19.0859 31.3047 18.7734 30.8203 18.3828C30.3411 17.987 30.1016 17.4609 30.1016 16.8047C30.1016 16.3464 30.2344 15.9375 30.5 15.5781C30.7656 15.2135 31.1354 14.9245 31.6094 14.7109C32.0833 14.4974 32.6354 14.3906 33.2656 14.3906C33.9062 14.3906 34.4531 14.4635 34.9062 14.6094C35.3646 14.7552 35.763 14.9505 36.1016 15.1953L36.1797 17.125H35.0234L34.7734 16C34.5911 15.8646 34.375 15.7604 34.125 15.6875C33.875 15.6146 33.5885 15.5781 33.2656 15.5781C32.7865 15.5781 32.3958 15.6901 32.0938 15.9141C31.7969 16.138 31.6484 16.4193 31.6484 16.7578C31.6484 16.9557 31.6901 17.1276 31.7734 17.2734C31.862 17.4193 32.0286 17.5521 32.2734 17.6719C32.5182 17.7865 32.8776 17.901 33.3516 18.0156C34.5286 18.2917 35.349 18.6432 35.8125 19.0703C36.2812 19.4974 36.5156 20.0234 36.5156 20.6484C36.5156 21.362 36.25 21.9609 35.7188 22.4453C35.1927 22.9245 34.362 23.1641 33.2266 23.1641ZM41.2109 23.1641C40.6432 23.1641 40.112 23.1068 39.6172 22.9922C39.1224 22.8776 38.5964 22.7005 38.0391 22.4609L38.0234 20.4531H39.1875L39.4766 21.6641C40.0286 21.8932 40.6068 22.0078 41.2109 22.0078C41.8359 22.0078 42.2839 21.888 42.5547 21.6484C42.8255 21.4089 42.9609 21.112 42.9609 20.7578C42.9609 20.4245 42.8229 20.1432 42.5469 19.9141C42.276 19.6797 41.7812 19.4818 41.0625 19.3203C40.0417 19.0859 39.2891 18.7734 38.8047 18.3828C38.3255 17.987 38.0859 17.4609 38.0859 16.8047C38.0859 16.3464 38.2188 15.9375 38.4844 15.5781C38.75 15.2135 39.1198 14.9245 39.5938 14.7109C40.0677 14.4974 40.6198 14.3906 41.25 14.3906C41.8906 14.3906 42.4375 14.4635 42.8906 14.6094C43.349 14.7552 43.7474 14.9505 44.0859 15.1953L44.1641 17.125H43.0078L42.7578 16C42.5755 15.8646 42.3594 15.7604 42.1094 15.6875C41.8594 15.6146 41.5729 15.5781 41.25 15.5781C40.7708 15.5781 40.3802 15.6901 40.0781 15.9141C39.7812 16.138 39.6328 16.4193 39.6328 16.7578C39.6328 16.9557 39.6745 17.1276 39.7578 17.2734C39.8464 17.4193 40.013 17.5521 40.2578 17.6719C40.5026 17.7865 40.862 17.901 41.3359 18.0156C42.513 18.2917 43.3333 18.6432 43.7969 19.0703C44.2656 19.4974 44.5 20.0234 44.5 20.6484C44.5 21.362 44.2344 21.9609 43.7031 22.4453C43.1771 22.9245 42.3464 23.1641 41.2109 23.1641ZM45.7188 23V22.0156L46.9922 21.7969V15.7578L45.7188 15.5391V14.5469H48.5312V21.7969L49.8047 22.0156V23H45.7188ZM46.9141 12.4609V10.8125H48.5312V12.4609H46.9141ZM50.8672 23V22.0156L52.1406 21.7969V15.7578L50.8672 15.5391V14.5469H53.5156L53.625 15.8047C53.9062 15.3568 54.2578 15.0104 54.6797 14.7656C55.1068 14.5156 55.5911 14.3906 56.1328 14.3906C57.0443 14.3906 57.75 14.6589 58.25 15.1953C58.75 15.7266 59 16.5495 59 17.6641V21.7969L60.2734 22.0156V23H56.1875V22.0156L57.4609 21.7969V17.6953C57.4609 16.9505 57.3125 16.4219 57.0156 16.1094C56.724 15.7969 56.276 15.6406 55.6719 15.6406C55.2292 15.6406 54.8359 15.7474 54.4922 15.9609C54.1536 16.1745 53.8828 16.4661 53.6797 16.8359V21.7969L54.9531 22.0156V23H50.8672ZM65 26.4141C64.5938 26.4141 64.1536 26.3568 63.6797 26.2422C63.2057 26.1328 62.7891 25.9818 62.4297 25.7891L62.8281 24.5938C63.1146 24.7448 63.4531 24.8698 63.8438 24.9688C64.2344 25.0677 64.6146 25.1172 64.9844 25.1172C65.6719 25.1172 66.1745 24.9245 66.4922 24.5391C66.8151 24.1536 66.9766 23.6042 66.9766 22.8906V22.0859C66.4141 22.8047 65.6406 23.1641 64.6562 23.1641C63.9688 23.1641 63.375 22.9948 62.875 22.6562C62.375 22.3125 61.9896 21.8359 61.7188 21.2266C61.4531 20.612 61.3203 19.901 61.3203 19.0938V18.9297C61.3203 18.0234 61.4531 17.2292 61.7188 16.5469C61.9896 15.8646 62.375 15.3359 62.875 14.9609C63.375 14.5807 63.974 14.3906 64.6719 14.3906C65.7188 14.3906 66.5208 14.7969 67.0781 15.6094L67.2188 14.5469H69.5625V15.5312L68.5156 15.7578V22.8906C68.5156 23.9844 68.2109 24.8438 67.6016 25.4688C66.9922 26.099 66.125 26.4141 65 26.4141ZM65.0391 21.9141C65.5026 21.9141 65.8906 21.8099 66.2031 21.6016C66.5156 21.388 66.7734 21.0885 66.9766 20.7031V16.8125C66.7786 16.4531 66.5208 16.1693 66.2031 15.9609C65.8854 15.7474 65.5026 15.6406 65.0547 15.6406C64.3203 15.6406 63.7708 15.9479 63.4062 16.5625C63.0417 17.1771 62.8594 17.9661 62.8594 18.9297V19.0938C62.8594 19.9427 63.0391 20.625 63.3984 21.1406C63.7578 21.6562 64.3047 21.9141 65.0391 21.9141Z" fill="black"/>
<path d="M76.6365 45.1002C76.6365 40.6819 80.2182 37.1002 84.6365 37.1002H143.493C147.911 37.1002 151.493 40.6819 151.493 45.1002V142.691H84.6365C80.2182 142.691 76.6365 139.109 76.6365 134.691V45.1002Z" fill="#E5CC44"/>
<path d="M246.764 45.1002C246.764 40.6819 250.346 37.1002 254.764 37.1002H313.62C318.039 37.1002 321.62 40.6819 321.62 45.1002V142.691H246.764V45.1002Z" fill="#E5CC44"/>
<path d="M362.451 45.1002C362.451 40.6819 366.033 37.1002 370.451 37.1002H394.148C398.566 37.1002 402.148 40.6819 402.148 45.1002V142.691H362.451V45.1002Z" fill="#E5CC44"/>
<path d="M442.978 45.1002C442.978 40.6819 446.56 37.1002 450.978 37.1002H562.007C566.425 37.1002 570.007 40.6819 570.007 45.1002V142.691H442.978V45.1002Z" fill="#E5CC44"/>
<path d="M674.352 45.1002C674.352 40.6819 677.934 37.1002 682.352 37.1002H706.049C710.467 37.1002 714.049 40.6819 714.049 45.1002V142.691H674.352V45.1002Z" fill="#E5CC44"/>
<path d="M737.866 45.1002C737.866 40.6819 741.448 37.1002 745.866 37.1002H769.563C773.981 37.1002 777.563 40.6819 777.563 45.1002V134.691C777.563 139.109 773.981 142.691 769.563 142.691H737.866V45.1002Z" fill="#E5CC44"/>
</svg>
